<?xml version="1.0" encoding="UTF-8" standalone="no"?>
<svg
   xmlns:dc="http://purl.org/dc/elements/1.1/"
   xmlns:cc="http://creativecommons.org/ns#"
   xmlns:rdf="http://www.w3.org/1999/02/22-rdf-syntax-ns#"
   xmlns:svg="http://www.w3.org/2000/svg"
   xmlns="http://www.w3.org/2000/svg"
   xmlns:sodipodi="http://sodipodi.sourceforge.net/DTD/sodipodi-0.dtd"
   xmlns:inkscape="http://www.inkscape.org/namespaces/inkscape"
   version="1.1"
   x="0px"
   y="0px"
   viewBox="0 0 66 82.5"
   enable-background="new 0 0 66 66"
   xml:space="preserve"
   id="svg22"
   sodipodi:docname="administrativetasks.svg"
   inkscape:version="0.92.2 (5c3e80d, 2017-08-06)"><metadata
     id="metadata28"><rdf:RDF><cc:Work
         rdf:about=""><dc:format>image/svg+xml</dc:format><dc:type
           rdf:resource="http://purl.org/dc/dcmitype/StillImage" /><dc:title></dc:title></cc:Work></rdf:RDF></metadata><defs
     id="defs26" /><sodipodi:namedview
     pagecolor="#ffffff"
     bordercolor="#666666"
     borderopacity="1"
     objecttolerance="10"
     gridtolerance="10"
     guidetolerance="10"
     inkscape:pageopacity="0"
     inkscape:pageshadow="2"
     inkscape:window-width="2048"
     inkscape:window-height="1089"
     id="namedview24"
     showgrid="false"
     inkscape:zoom="2.8606061"
     inkscape:cx="33"
     inkscape:cy="41.25"
     inkscape:window-x="-8"
     inkscape:window-y="236"
     inkscape:window-maximized="1"
     inkscape:current-layer="svg22" /><g
     id="g16"
     transform="translate(0,8.3898305)"><path
       d="M 34.8,50.3 C 31,48.9 28.5,48.1 24.9,47.7 v -1.6 c 4.7,-1.8 8,-6.3 8,-11.6 v -1.1 c 0.1,0 2.3,0 2.2,0 0.5,0 1,-0.4 1,-1 0,-0.6 -0.4,-1 -1,-1 H 34.6 C 34.2,24.6 29.9,18.8 24,17.1 24,15.8 23,14.8 21.7,14.8 H 19.3 C 18,14.8 17,15.8 17,17.1 11.1,18.8 6.8,24.6 6.4,31.4 H 5.8 c -0.5,0 -1,0.4 -1,1 0,0.6 0.4,1 1,1 0.1,0 2.3,0 2.2,0 v 1.1 c 0,5.3 3.3,9.9 8,11.6 v 1.6 c -3.7,0.4 -6.1,1.2 -10,2.6 -3,1.1 -5,4 -5,7.3 V 64 c 0,0.5 0.4,1 1,1 13.1,0 23,0 36.9,0 0.5,0 1,-0.4 1,-1 V 57.6 C 39.8,54.3 37.8,51.3 34.8,50.3 Z M 16.9,19.1 v 3.4 c 0,0.5 0.4,1 1,1 0.6,0 1,-0.4 1,-1 v -5.4 c 0,-0.2 0.2,-0.4 0.4,-0.4 h 2.4 c 0.2,0 0.4,0.2 0.4,0.4 v 5.4 c 0,0.5 0.4,1 1,1 0.5,0 1,-0.4 1,-1 v -3.4 c 4.9,1.6 8.3,6.6 8.7,12.3 H 8.2 C 8.5,25.6 12,20.7 16.9,19.1 Z M 27.7,55.7 H 13.1 l -2.4,-5 c 1.8,-0.5 3.4,-0.9 5.4,-1.1 0.5,2.1 2.3,3.6 4.3,3.6 0.1,0 0.3,0 0.4,0 1.9,-0.2 3.4,-1.6 3.9,-3.6 2,0.2 3.7,0.6 5.5,1.1 z M 9.9,34.4 V 33.3 H 31 v 1.1 C 31,40.4 26.1,45 20.4,45 14.8,45 9.9,40.4 9.9,34.4 Z m 10.5,12.5 c 0.9,0 1.7,-0.1 2.5,-0.3 v 1.7 c 0,1.5 -1,2.8 -2.3,2.9 -1.5,0.1 -2.7,-1.2 -2.7,-2.7 v -1.9 c 0.8,0.2 1.7,0.3 2.5,0.3 z M 2.9,57.6 c 0,-2.5 1.5,-4.7 3.7,-5.5 0.8,-0.3 1.5,-0.5 2.1,-0.8 l 2.7,5.6 V 63 H 2.9 Z m 10.6,5.5 v -5.4 h 13.9 v 5.4 z m 24.4,0 H 29.3 V 57 L 32,51.4 c 0.7,0.2 1.4,0.5 2.2,0.8 2.2,0.8 3.7,3 3.7,5.5 z"
       id="path2"
       inkscape:connector-curvature="0" /><path
       d="m 20.4,42.4 c 1.3,0 2.6,-0.5 3.5,-1.5 0.4,-0.4 0.4,-1 0,-1.4 -0.4,-0.4 -1,-0.4 -1.4,0 -1.2,1.2 -3.1,1.2 -4.3,0 -0.4,-0.4 -1,-0.4 -1.4,0 -0.4,0.4 -0.4,1 0,1.4 1.1,1.1 2.3,1.5 3.6,1.5 z"
       id="path4"
       inkscape:connector-curvature="0" /><path
       d="m 24.9,37.2 h 1.9 c 0.5,0 1,-0.4 1,-1 0,-0.5 -0.4,-1 -1,-1 h -1.9 c -0.5,0 -1,0.4 -1,1 0,0.6 0.4,1 1,1 z"
       id="path6"
       inkscape:connector-curvature="0" /><path
       d="m 16.9,36.2 c 0,-0.5 -0.4,-1 -1,-1 H 14 c -0.5,0 -1,0.4 -1,1 0,0.5 0.4,1 1,1 h 2 c 0.5,0 0.9,-0.4 0.9,-1 z"
       id="path8"
       inkscape:connector-curvature="0" /><path
       d="m 52.7,9.6 c -1.9,-0.9 -4.1,-1 -6.1,-0.3 -2,0.7 -3.6,2.1 -4.5,4 -0.9,1.9 -1,4.1 -0.3,6.1 0.7,2 2.1,3.6 4,4.5 1.1,0.5 2.3,0.8 3.5,0.8 0.9,0 1.8,-0.1 2.6,-0.4 2,-0.7 3.6,-2.1 4.5,-4 0.9,-1.9 1,-4.1 0.3,-6.1 -0.6,-2.1 -2.1,-3.7 -4,-4.6 z m 2,9.7 c -0.7,1.4 -1.9,2.5 -3.4,3.1 -1.5,0.5 -3.1,0.4 -4.6,-0.3 -1.4,-0.7 -2.5,-1.9 -3.1,-3.4 -0.5,-1.5 -0.4,-3.1 0.3,-4.6 0.7,-1.4 1.9,-2.5 3.4,-3.1 0.6,-0.2 1.3,-0.3 2,-0.3 0.9,0 1.8,0.2 2.6,0.6 1.4,0.7 2.5,1.9 3.1,3.4 0.5,1.6 0.4,3.2 -0.3,4.6 z"
       id="path10"
       inkscape:connector-curvature="0" /><path
       d="M 64.3,13.3 61.4,12.5 C 61.2,12.1 61.1,11.7 60.9,11.3 L 62.3,8.7 C 62.5,8.3 62.4,7.9 62.1,7.6 L 58.5,4 C 58.2,3.7 57.7,3.6 57.3,3.8 L 54.7,5.2 C 54.3,5 53.9,4.8 53.4,4.7 L 52.6,1.8 C 52.6,1.3 52.2,1 51.8,1 H 46.7 C 46.3,1 45.9,1.3 45.8,1.7 L 45,4.5 C 44.6,4.7 44.1,4.8 43.7,5 L 41.1,3.6 C 40.7,3.4 40.3,3.5 39.9,3.8 L 36.3,7.4 C 36,7.7 35.9,8.2 36.1,8.6 l 1.4,2.6 C 37.3,11.6 37.1,12 37,12.5 l -2.8,0.8 c -0.4,0.1 -0.7,0.5 -0.7,0.9 v 5.1 c 0,0.4 0.3,0.8 0.7,0.9 L 37,21 c 0.2,0.4 0.3,0.8 0.5,1.3 l -1.4,2.6 c -0.2,0.4 -0.1,0.8 0.2,1.1 l 3.6,3.6 c 0.3,0.3 0.8,0.4 1.1,0.2 l 2.6,-1.4 c 0.4,0.2 0.8,0.4 1.2,0.5 l 0.8,2.9 c 0.1,0.4 0.5,0.7 0.9,0.7 h 5.1 c 0,0 0,0 0,0 0.4,0 0.8,-0.3 0.9,-0.7 l 0.9,-2.9 c 0.4,-0.2 0.9,-0.3 1.3,-0.5 l 2.6,1.4 c 0.4,0.2 0.8,0.1 1.2,-0.2 L 62.1,26 c 0.3,-0.3 0.4,-0.8 0.2,-1.1 l -1.4,-2.6 c 0.2,-0.4 0.4,-0.8 0.5,-1.3 l 2.8,-0.8 c 0.4,-0.1 0.7,-0.5 0.7,-0.9 V 14.2 C 65,13.8 64.7,13.4 64.3,13.3 Z m -1.2,5.2 -2.6,0.8 c -0.3,0.1 -0.6,0.3 -0.7,0.7 -0.2,0.7 -0.5,1.3 -0.8,1.9 -0.2,0.3 -0.2,0.6 0,0.9 l 1.3,2.4 -2.6,2.6 -2.4,-1.3 c -0.3,-0.2 -0.6,-0.2 -0.9,0 -0.6,0.3 -1.2,0.6 -1.9,0.8 -0.3,0.1 -0.5,0.3 -0.6,0.6 l -0.8,2.6 h -3.6 l -0.8,-2.7 c -0.1,-0.3 -0.3,-0.6 -0.7,-0.7 -0.6,-0.2 -1.2,-0.4 -1.9,-0.8 -0.3,-0.2 -0.6,-0.1 -0.9,0 l -2.4,1.3 -2.6,-2.6 1.3,-2.4 c 0.2,-0.3 0.2,-0.6 0,-0.9 C 39.2,21.1 38.9,20.5 38.7,19.8 38.6,19.5 38.4,19.2 38,19.2 L 35.4,18.4 V 14.8 L 38,14 c 0.3,-0.1 0.6,-0.3 0.6,-0.6 0.2,-0.6 0.5,-1.3 0.8,-1.9 0.2,-0.3 0.1,-0.6 0,-0.9 L 38.1,8.2 40.7,5.6 43.2,7 c 0.3,0.2 0.6,0.2 0.9,0 C 44.7,6.7 45.3,6.4 46,6.2 46.3,6.1 46.6,5.9 46.6,5.5 L 47.4,2.9 H 51 l 0.8,2.6 c 0.1,0.3 0.3,0.6 0.6,0.7 0.7,0.2 1.3,0.5 1.9,0.8 0.3,0.2 0.6,0.1 0.9,0 l 2.4,-1.3 2.6,2.6 -1.2,2.4 c -0.2,0.3 -0.2,0.6 0,0.9 0.3,0.6 0.6,1.2 0.8,1.9 0.1,0.3 0.3,0.6 0.7,0.6 l 2.6,0.8 z"
       id="path12"
       inkscape:connector-curvature="0" /><path
       d="m 51.5,14.8 -2.9,2 -0.8,-1.2 c -0.3,-0.4 -0.9,-0.6 -1.3,-0.3 -0.4,0.3 -0.6,0.9 -0.3,1.3 l 1.3,2 c 0.2,0.3 0.5,0.4 0.8,0.4 0.2,0 0.4,-0.1 0.5,-0.2 l 3.7,-2.5 C 52.9,16 53.1,15.4 52.8,15 52.5,14.7 51.9,14.5 51.5,14.8 Z"
       id="path14"
       inkscape:connector-curvature="0" /></g></svg>