<?xml version="1.0" encoding="UTF-8" standalone="no"?>
<svg
   xmlns:dc="http://purl.org/dc/elements/1.1/"
   xmlns:cc="http://creativecommons.org/ns#"
   xmlns:rdf="http://www.w3.org/1999/02/22-rdf-syntax-ns#"
   xmlns:svg="http://www.w3.org/2000/svg"
   xmlns="http://www.w3.org/2000/svg"
   xmlns:sodipodi="http://sodipodi.sourceforge.net/DTD/sodipodi-0.dtd"
   xmlns:inkscape="http://www.inkscape.org/namespaces/inkscape"
   version="1.1"
   x="0px"
   y="0px"
   viewBox="0 0 64 80"
   style="enable-background:new 0 0 64 64;"
   xml:space="preserve"
   id="svg12"
   sodipodi:docname="gettingStarted.svg"
   inkscape:version="0.92.2 (5c3e80d, 2017-08-06)"><metadata
     id="metadata18"><rdf:RDF><cc:Work
         rdf:about=""><dc:format>image/svg+xml</dc:format><dc:type
           rdf:resource="http://purl.org/dc/dcmitype/StillImage" /><dc:title></dc:title></cc:Work></rdf:RDF></metadata><defs
     id="defs16" /><sodipodi:namedview
     pagecolor="#ffffff"
     bordercolor="#666666"
     borderopacity="1"
     objecttolerance="10"
     gridtolerance="10"
     guidetolerance="10"
     inkscape:pageopacity="0"
     inkscape:pageshadow="2"
     inkscape:window-width="2048"
     inkscape:window-height="1089"
     id="namedview14"
     showgrid="false"
     inkscape:zoom="2.95"
     inkscape:cx="32"
     inkscape:cy="40"
     inkscape:window-x="-8"
     inkscape:window-y="236"
     inkscape:window-maximized="1"
     inkscape:current-layer="svg12" /><path
     d="m 46.677966,34.152542 c 3.86,0 7,-3.14 7,-7 0,-3.86 -3.14,-7 -7,-7 -3.86,0 -7,3.14 -7,7 0,3.86 3.14,7 7,7 z m 0,-12 c 2.757,0 5,2.243 5,5 0,2.757 -2.243,5 -5,5 -2.757,0 -5,-2.243 -5,-5 0,-2.757 2.243,-5 5,-5 z"
     id="path2"
     inkscape:connector-curvature="0" /><path
     d="m 3.6779661,71.152542 h 0.941 c 10.0659999,0 19.6769999,-3.146 27.7939999,-9.099 l 2.856,-2.095 c 0.144,-0.106 0.257,-0.249 0.328,-0.413 l 2.418,-5.643 0.828,0.828 4.925,10.834 c 0.136,0.299 0.409,0.512 0.732,0.57 0.059,0.013 0.119,0.018 0.178,0.018 0.263,0 0.518,-0.104 0.707,-0.293 l 16,-16 c 0.267,-0.266 0.36,-0.66 0.244,-1.018 l -4.33,-13.244 c 3.505,-6.306 5.379,-13.428 5.379,-20.842 v -2.603 c 0,-0.552 -0.448,-1 -1,-1 h -2.147 c -7.475,0 -14.689,1.92 -21.06,5.507 l -12.457,-4.449 c -0.354,-0.125 -0.748,-0.044 -1.022,0.214 l -16.9999999,16 c -0.243,0.229 -0.355,0.562 -0.301,0.892 0.054,0.329 0.269,0.609 0.573,0.747 l 10.8339999,4.925 0.828,0.828 -5.643,2.418 c -0.164,0.07 -0.307,0.184 -0.413,0.328 l -2.095,2.856 c -3.6289999,4.95 -6.2089999,10.456 -7.6749999,16.281 -0.852,2.875 -1.219,5.947 -1.354,9.068 -0.039,0.812 -0.068,1.626 -0.068,2.444 v 0.896 0.045 c 0,0.552 0.448,1 1,1 z m 2.347,-12.903 c 1.383,-4.699 4.0489999,-8.463 8.9809999,-11.138 l 5.329,-0.888 0.929,0.929 -3.293,3.293 1.414,1.414 3.293,-3.293 1.586,1.586 -5.293,5.293 1.414,1.414 5.293,-5.293 1.929,1.929 -0.884,5.303 c -4.135,6.757 -11.353,10.146 -22.0399999,10.345 0.01,-0.939 0.043,-1.849 0.09,-2.745 0.17,-2.77 0.588,-5.494 1.252,-8.149 z m 15.0829999,-24.081 3.666,-3.506 8.49,8.49 -3.586,3.586 -3.293,-3.293 -4,-4 z m 11.156,13.984 -3.586,3.586 -6.586,-6.586 3.586,-3.586 z m -11.586,-4.414 -4.249,-4.249 5.02,-2.151 2.815,2.814 z m 10.552,16.702 c -2.079,1.525 -4.264,2.85 -6.529,3.984 1.47,-1.374 2.751,-2.953 3.834,-4.758 0.064,-0.108 0.108,-0.227 0.129,-0.35 l 0.681,-4.084 3.802,3.802 z m 3.111,-3.039 -4.249,-4.249 3.586,-3.586 2.814,2.814 z m 25.196,-8.522 -14.546,14.545 -4.116,-9.055 9.208,-9.208 c 0.545,-0.545 1.071,-1.105 1.583,-1.673 0.039,-0.044 0.076,-0.09 0.116,-0.134 1.542,-1.727 2.927,-3.561 4.156,-5.481 z m 1.141,-35.727 v 1.603 c 0,7.165 -1.836,14.043 -5.267,20.116 -0.026,0.034 -0.057,0.063 -0.078,0.101 -1.336,2.356 -2.893,4.557 -4.638,6.582 -0.091,0.105 -0.18,0.212 -0.273,0.316 -0.566,0.644 -1.148,1.273 -1.753,1.878 l -3.991,3.99 -4.293,-4.293 -1.414,1.414 4.293,4.293 -3.586,3.586 -1.293,-1.293 -4,-4 -3.293,-3.293 3.586,-3.586 2.293,2.293 1.414,-1.414 -2.293,-2.293 2.293,-2.293 -1.414,-1.414 -2.293,2.293 -8.459,-8.459 4.971,-4.756 c 0.012,-0.012 0.025,-0.022 0.037,-0.034 0.54,-0.515 1.097,-1.013 1.664,-1.498 0.141,-0.12 0.285,-0.235 0.427,-0.354 0.475,-0.395 0.957,-0.781 1.449,-1.154 0.119,-0.091 0.239,-0.18 0.359,-0.27 1.264,-0.936 2.579,-1.805 3.944,-2.591 0.019,-0.011 0.033,-0.028 0.052,-0.041 6.154,-3.538 13.154,-5.429 20.409,-5.429 z m -34.76,1.147 10.333,3.69 c -2.283,1.474 -4.441,3.174 -6.443,5.088 l -10.332,9.885 -9.027,-4.103 z m -12.528,28.301 1.405,-1.916 3.802,3.802 -4.084,0.681 c -0.107,0.018 -0.21,0.053 -0.306,0.104 -1.719,0.917 -3.169,1.967 -4.4209999,3.112 1.0479999,-2 2.2469999,-3.933 3.6039999,-5.783 z"
     id="path4"
     inkscape:connector-curvature="0" /><rect
     x="-32.862289"
     y="52.619854"
     transform="rotate(-45)"
     width="4.2429595"
     height="1.9999808"
     id="rect6"
     style="stroke-width:0.9999904" /></svg>