<?xml version="1.0" encoding="UTF-8" standalone="no"?>
<svg
   xmlns:dc="http://purl.org/dc/elements/1.1/"
   xmlns:cc="http://creativecommons.org/ns#"
   xmlns:rdf="http://www.w3.org/1999/02/22-rdf-syntax-ns#"
   xmlns:svg="http://www.w3.org/2000/svg"
   xmlns="http://www.w3.org/2000/svg"
   xmlns:sodipodi="http://sodipodi.sourceforge.net/DTD/sodipodi-0.dtd"
   xmlns:inkscape="http://www.inkscape.org/namespaces/inkscape"
   version="1.1"
   x="0px"
   y="0px"
   viewBox="0 0 100 125"
   enable-background="new 0 0 100 100"
   xml:space="preserve"
   id="svg20"
   sodipodi:docname="integration.svg"
   inkscape:version="0.92.2 (5c3e80d, 2017-08-06)"><metadata
     id="metadata26"><rdf:RDF><cc:Work
         rdf:about=""><dc:format>image/svg+xml</dc:format><dc:type
           rdf:resource="http://purl.org/dc/dcmitype/StillImage" /><dc:title></dc:title></cc:Work></rdf:RDF></metadata><defs
     id="defs24" /><sodipodi:namedview
     pagecolor="#ffffff"
     bordercolor="#666666"
     borderopacity="1"
     objecttolerance="10"
     gridtolerance="10"
     guidetolerance="10"
     inkscape:pageopacity="0"
     inkscape:pageshadow="2"
     inkscape:window-width="2048"
     inkscape:window-height="1089"
     id="namedview22"
     showgrid="false"
     inkscape:zoom="1.888"
     inkscape:cx="50"
     inkscape:cy="62.5"
     inkscape:window-x="-8"
     inkscape:window-y="236"
     inkscape:window-maximized="1"
     inkscape:current-layer="svg20" /><path
     d="m 53.908718,33.905059 c 0,2.191947 -1.781593,3.963365 -3.963365,3.963365 v 5.896439 h -5.896439 c 0,2.191947 -1.771419,3.963366 -3.963366,3.963366 -2.191947,0 -3.963366,-1.771419 -3.963366,-3.963366 h -5.896439 v -5.896439 c -2.191947,0 -3.963365,-1.771418 -3.963365,-3.963365 0,-2.181773 1.771418,-3.963366 3.963365,-3.963366 v -5.896439 h 19.71961 v 5.896439 c 2.181772,0 3.963365,1.782723 3.963365,3.963366 z"
     id="path2"
     inkscape:connector-curvature="0"
     style="stroke-width:1.13045228;fill:#b3b3b3" /><path
     d="m 29.39373,58.345436 c 0,2.191947 -1.771418,3.963366 -3.963365,3.963366 v 5.896439 h -5.896439 c 0,-2.191947 -1.771419,-3.963366 -3.963366,-3.963366 -2.191947,0 -3.963365,1.771419 -3.963365,3.963366 H 5.7107554 v -5.896439 c -2.1817728,0 -3.9633656,-1.771419 -3.9633656,-3.963366 0,-2.191947 1.7815928,-3.963365 3.9633656,-3.963365 v -5.896439 h 5.8964396 c 0,-2.191947 1.771418,-3.963366 3.963365,-3.963366 2.191947,0 3.963366,1.771419 3.963366,3.963366 h 5.896439 v 5.896439 c 2.191947,0 3.963365,1.771418 3.963365,3.963365 z"
     id="path4"
     inkscape:connector-curvature="0"
     style="stroke-width:1.13045228;fill:#4d4d4d" /><path
     d="m 77.592823,58.345436 c 0,2.191947 -1.781592,3.963366 -3.963365,3.963366 v 5.907744 h -5.896439 c 0,-2.203252 -1.781593,-3.974671 -3.963366,-3.974671 -2.191947,0 -3.963365,1.771419 -3.963365,3.974671 H 44.048914 c 0,-2.203252 -1.771419,-3.974671 -3.974671,-3.974671 -2.170468,0 -3.953191,1.771419 -3.953191,3.974671 h -5.896439 v -5.907744 c 2.191947,0 3.97467,-1.771419 3.97467,-3.97467 0,-2.170468 -1.781593,-3.953192 -3.97467,-3.953192 v -5.895308 h 5.896439 c 0,2.203251 1.781593,3.953191 3.953191,3.953191 2.203252,0 3.974671,-1.74994 3.974671,-3.953191 h 15.757374 c 0,2.203251 1.771418,3.953191 3.963365,3.953191 2.181773,0 3.963366,-1.74994 3.963366,-3.953191 h 5.896439 v 5.896439 c 2.180642,0 3.963365,1.771418 3.963365,3.963365 z"
     id="path6"
     inkscape:connector-curvature="0"
     style="stroke-width:1.13045228" /><path
     d="m 77.592823,33.905059 c 0,2.191947 -1.781592,3.963365 -3.963365,3.963365 v 5.896439 h -5.896439 c 0,2.191947 -1.781593,3.963366 -3.963366,3.963366 -2.191947,0 -3.963365,-1.771419 -3.963365,-3.963366 h -5.896439 v -5.896439 c 2.191946,0 3.963365,-1.771418 3.963365,-3.963365 0,-2.181773 -1.771419,-3.963366 -3.963365,-3.963366 v -5.896439 h 5.896439 c 0,2.191947 1.771418,3.97467 3.963365,3.97467 2.181773,0 3.963366,-1.781593 3.963366,-3.97467 h 5.896439 v 5.896439 c 2.180642,0 3.963365,1.782723 3.963365,3.963366 z"
     id="path8"
     inkscape:connector-curvature="0"
     style="stroke-width:1.13045228;fill:#e6e6e6" /><path
     d="m 53.908718,82.784684 c 0,2.191947 -1.781593,3.97467 -3.963365,3.97467 v 5.886265 h -19.72074 v -5.886265 c -2.191947,0 -3.963366,-1.781593 -3.963366,-3.97467 0,-2.181773 1.771419,-3.963366 3.963366,-3.963366 v -5.886265 h 5.896439 c 0,-2.191947 1.771419,-3.97467 3.963365,-3.97467 2.191947,0 3.963366,1.781593 3.963366,3.97467 h 5.896439 v 5.886265 c 2.182903,0 3.964496,1.782723 3.964496,3.963366 z"
     id="path10"
     inkscape:connector-curvature="0"
     style="stroke-width:1.13045228;fill:#e6e6e6" /><path
     d="m 69.654788,82.784684 c 0,2.191947 1.781592,3.97467 3.97467,3.97467 v 5.886265 h -5.896439 c 0,2.191947 -1.781593,3.963365 -3.963366,3.963365 -2.191947,0 -3.963365,-1.771418 -3.963365,-3.963365 h -5.896439 v -5.886265 c 2.191946,0 3.963365,-1.781593 3.963365,-3.97467 0,-2.181773 -1.771419,-3.963366 -3.963365,-3.963366 v -5.886265 h 5.896439 c 0,-2.191947 1.771418,-3.97467 3.963365,-3.97467 2.181773,0 3.963366,1.781593 3.963366,3.97467 h 5.896439 v 5.886265 c -2.193078,0 -3.97467,1.782723 -3.97467,3.963366 z"
     id="path12"
     inkscape:connector-curvature="0"
     style="stroke-width:1.13045228;fill:#4d4d4d" /><path
     d="m 92.241224,48.495806 c 0,2.189686 -1.77481,3.965626 -3.965627,3.965626 -2.189686,0 -3.965626,-1.77594 -3.965626,-3.965626 h -5.893048 v 5.893048 c 2.189686,0 3.965627,1.77594 3.965627,3.965626 0,2.189686 -1.775941,3.965627 -3.965627,3.965627 v 5.893047 h 5.893048 c 0,-2.189686 1.77481,-3.965626 3.965626,-3.965626 2.189686,0 3.965627,1.77481 3.965627,3.965626 h 5.893047 V 48.495806 Z"
     id="path14"
     inkscape:connector-curvature="0"
     style="stroke-width:1.13045228;fill:#cccccc" /></svg>