<?xml version="1.0" encoding="UTF-8" standalone="no"?>
<!-- Created with Inkscape (http://www.inkscape.org/) -->

<svg
   xmlns:dc="http://purl.org/dc/elements/1.1/"
   xmlns:cc="http://creativecommons.org/ns#"
   xmlns:rdf="http://www.w3.org/1999/02/22-rdf-syntax-ns#"
   xmlns:svg="http://www.w3.org/2000/svg"
   xmlns="http://www.w3.org/2000/svg"
   xmlns:xlink="http://www.w3.org/1999/xlink"
   xmlns:sodipodi="http://sodipodi.sourceforge.net/DTD/sodipodi-0.dtd"
   xmlns:inkscape="http://www.inkscape.org/namespaces/inkscape"
   id="svg2985"
   version="1.1"
   inkscape:version="0.48.4 r9939"
   width="602.71869"
   height="586.4375"
   sodipodi:docname="Wired Koala Character.svg"
   inkscape:export-filename="C:\Users\Niklas.MVK\Pictures\Illustrations\Wired Koala\Release 1\Wired Koala - Full - No Shadows - No Backdrop.png"
   inkscape:export-xdpi="300.01227"
   inkscape:export-ydpi="300.01227"
   style="enable-background:new">
  <title
     id="title4129">Wired Koala Character</title>
  <metadata
     id="metadata2991">
    <rdf:RDF>
      <cc:Work
         rdf:about="">
        <dc:format>image/svg+xml</dc:format>
        <dc:type
           rdf:resource="http://purl.org/dc/dcmitype/StillImage" />
        <dc:title>Wired Koala Character</dc:title>
        <dc:date>2015-02-06</dc:date>
        <dc:creator>
          <cc:Agent>
            <dc:title>Niklas Häggström</dc:title>
          </cc:Agent>
        </dc:creator>
        <dc:rights>
          <cc:Agent>
            <dc:title>Niklas Häggström</dc:title>
          </cc:Agent>
        </dc:rights>
        <dc:publisher>
          <cc:Agent>
            <dc:title>Niklas Häggström</dc:title>
          </cc:Agent>
        </dc:publisher>
        <dc:subject>
          <rdf:Bag>
            <rdf:li>Wired Koala</rdf:li>
            <rdf:li>koala</rdf:li>
            <rdf:li>logotype</rdf:li>
            <rdf:li>cartoon</rdf:li>
          </rdf:Bag>
        </dc:subject>
        <dc:contributor>
          <cc:Agent>
            <dc:title>Niklas Häggström, Mikael Håkansson</dc:title>
          </cc:Agent>
        </dc:contributor>
      </cc:Work>
    </rdf:RDF>
  </metadata>
  <defs
     id="defs2989" />
  <sodipodi:namedview
     pagecolor="#ffffff"
     bordercolor="#666666"
     borderopacity="1"
     objecttolerance="10"
     gridtolerance="10"
     guidetolerance="10"
     inkscape:pageopacity="0"
     inkscape:pageshadow="2"
     inkscape:window-width="1536"
     inkscape:window-height="814"
     id="namedview2987"
     showgrid="false"
     inkscape:zoom="0.91702911"
     inkscape:cx="499.11826"
     inkscape:cy="289.25091"
     inkscape:window-x="-8"
     inkscape:window-y="-8"
     inkscape:window-maximized="1"
     inkscape:current-layer="layer11"
     showguides="true"
     inkscape:guide-bbox="true"
     fit-margin-top="10"
     fit-margin-left="10"
     fit-margin-right="10"
     fit-margin-bottom="10" />
  <g
     inkscape:groupmode="layer"
     id="layer11"
     inkscape:label="Background Head"
     style="display:none"
     sodipodi:insensitive="true"
     transform="translate(-421.0625,-129.50538)">
    <path
       sodipodi:type="inkscape:offset"
       inkscape:radius="7.141324"
       inkscape:original="M 691.375 166.375 C 629.28202 167.69234 577.97383 211.81304 568.25 279.125 C 556.28221 361.97048 611.85356 448.58217 692.375 472.5625 C 772.89644 496.54283 847.87596 448.81423 859.84375 365.96875 C 871.81154 283.12327 816.24019 196.51158 735.71875 172.53125 C 720.62098 168.03494 705.70415 166.071 691.375 166.375 z "
       xlink:href="#path3985"
       style="fill:#000000;fill-opacity:1;fill-rule:nonzero;stroke:none"
       id="path3991"
       inkscape:href="#path3985"
       d="m 691.21875,159.25 c -65.39018,1.38729 -119.86231,48.45058 -130.03125,118.84375 -12.51575,86.63866 44.98811,176.24614 129.15625,201.3125 C 774.51171,504.47256 854.39049,453.63875 866.90625,367 879.422,280.36134 821.91814,190.75386 737.75,165.6875 721.96421,160.98629 706.30506,158.92994 691.21875,159.25 z"
       transform="matrix(1.0205861,0,0,1.0389721,-11.517445,-6.2049049)" />
    <path
       sodipodi:type="arc"
       style="fill:#c5ab5f;fill-opacity:1;fill-rule:nonzero;stroke:none"
       id="path3985"
       sodipodi:cx="707.8139"
       sodipodi:cy="341.07343"
       sodipodi:rx="154.14928"
       sodipodi:ry="154.14928"
       d="m 861.96318,341.07343 a 154.14928,154.14928 0 1 1 -308.29855,0 154.14928,154.14928 0 1 1 308.29855,0 z"
       transform="matrix(0.94581677,0.28167652,-0.1405754,0.97311529,92.528123,-208.72726)" />
  </g>
  <g
     inkscape:groupmode="layer"
     id="layer12"
     inkscape:label="Background Full Figure"
     style="display:inline"
     sodipodi:insensitive="true"
     transform="translate(-421.0625,-129.50538)">
    <path
       sodipodi:type="inkscape:offset"
       inkscape:radius="14.175083"
       inkscape:original="M 702.15625 148.125 C 558.05278 148.125 441.25 205.98239 441.25 277.375 C 441.25 319.80469 482.49037 357.46206 546.21875 381.03125 C 530.61697 402.20586 521.84375 426.06633 521.84375 451.28125 C 521.84375 473.70215 528.8075 495.00391 541.3125 514.34375 C 489.92842 531.85473 456.78125 559.38328 456.78125 590.375 C 456.78125 643.28525 553.35884 686.1875 672.46875 686.1875 C 791.57866 686.1875 888.125 643.28525 888.125 590.375 C 888.125 588.38749 887.98732 586.42623 887.71875 584.46875 C 952.6572 556.14906 995.59375 507.08542 995.59375 451.28125 C 995.59375 408.47865 970.32438 369.61986 929.25 341.0625 C 950.78031 322.2621 963.09375 300.53471 963.09375 277.375 C 963.09375 205.98239 846.25972 148.125 702.15625 148.125 z "
       xlink:href="#path4004"
       style="fill:#000000;fill-opacity:1;fill-rule:nonzero;stroke:none"
       id="path4019"
       inkscape:href="#path4004"
       d="m 702.15625,133.9375 c -73.94883,0 -140.99736,14.68209 -190.78125,39.34375 -49.78389,24.66166 -84.3125,60.667 -84.3125,104.09375 0,25.80743 12.72816,49.56108 32.9375,69.09375 16.81077,16.2479 38.97109,30.01553 65.0625,41.28125 -11.06998,19.50663 -17.40625,41.00872 -17.40625,63.53125 0,19.54912 4.76767,38.33638 13.25,55.6875 -20.00413,8.18283 -37.20606,17.98852 -50.5,29.6875 -16.70407,14.69997 -27.8125,33.16924 -27.8125,53.71875 0,17.53988 8.18146,33.73244 20.875,47.0625 12.69354,13.33006 30.01126,24.41241 50.75,33.625 41.47748,18.42517 96.99314,29.3125 158.25,29.3125 61.25686,0 116.77984,-10.88689 158.25,-29.3125 20.73508,-9.2128 38.02832,-20.29462 50.71875,-33.625 11.95809,-12.56111 19.81099,-27.68679 20.6875,-44.0625 63.63272,-30.43626 107.6562,-81.75899 107.6562,-142.09375 0,-43.22276 -22.96801,-82.10345 -59.06245,-111.625 16.42751,-18.20129 26.5625,-39.35413 26.5625,-62.28125 0,-43.42881 -34.52119,-79.43249 -84.3125,-104.09375 C 843.17744,148.61999 776.10508,133.9375 702.15625,133.9375 z"
       transform="translate(4,5.5678846)" />
    <path
       style="fill:#c5ab5f;fill-opacity:1;fill-rule:nonzero;stroke:none"
       d="m 702.15625,148.11045 c -144.10347,0 -260.90625,57.88671 -260.90625,129.27932 0,42.42969 41.24037,80.07466 104.96875,103.64385 -15.60178,21.17461 -24.375,45.02163 -24.375,70.23655 0,22.4209 6.96375,43.73385 19.46875,63.07369 -51.38408,17.51098 -84.53125,45.04471 -84.53125,76.03643 0,52.91025 96.57759,95.81401 215.6875,95.81401 119.10991,0 215.65625,-42.90376 215.65625,-95.81401 0,-1.98751 -0.13768,-3.9584 -0.40625,-5.91588 64.93845,-28.31969 107.875,-77.39007 107.875,-133.19424 0,-42.8026 -25.26937,-81.64036 -66.34375,-110.19772 21.53031,-18.8004 33.84375,-40.52297 33.84375,-63.68268 0,-71.39261 -116.83403,-129.27932 -260.9375,-129.27932 z"
       id="path4004"
       inkscape:connector-curvature="0" />
  </g>
  <g
     inkscape:groupmode="layer"
     id="layer10"
     inkscape:label="Border Head"
     style="display:inline"
     sodipodi:insensitive="true"
     transform="translate(-421.0625,-129.50538)">
    <path
       style="font-size:medium;font-style:normal;font-variant:normal;font-weight:normal;font-stretch:normal;text-indent:0;text-align:start;text-decoration:none;line-height:normal;letter-spacing:normal;word-spacing:normal;text-transform:none;direction:ltr;block-progression:tb;writing-mode:lr-tb;text-anchor:start;baseline-shift:baseline;color:#000000;fill:#ffffff;fill-opacity:1;fill-rule:nonzero;stroke:none;stroke-width:1;marker:none;visibility:visible;display:inline;overflow:visible;enable-background:accumulate;font-family:Sans;-inkscape-font-specification:Sans"
       d="m 849.25,199.90625 c -30.40482,1.30515 -60.00381,13.25013 -83.34375,32.5 -40.91896,-12.64765 -86.40256,-2.83865 -121.84375,19.90625 -20.43986,-13.3606 -44.56781,-19.97101 -68.37789,-24.36685 -22.1943,-3.31603 -47.77801,-5.02843 -66.84086,8.8981 -6.85784,5.57434 -15.07788,15.20514 -10.21875,24.40625 3.02026,6.32849 10.54422,7.61561 16.8125,6.4375 3.16654,0.047 8.06624,0.0372 10.09375,0.71875 -6.50678,3.70926 -16.47291,6.13421 -17.125,15.125 -1.09017,8.51238 7.16823,15.92413 15.5,14.0625 3.02407,-0.44677 11.00352,-2.79246 11.13664,-1.76164 -3.71558,3.91124 -9.64022,7.69303 -12.85539,10.41789 -8.47446,7.09518 -1.94283,22.47204 8.84375,21.9375 6.66242,-0.48368 12.02778,-5.57618 19,-5.46875 1.73961,0.51094 -2.16135,4.59442 -3.09375,6.1875 -3.92282,6.639 -13.87483,8.51299 -14.8125,17 -1.2427,6.8711 3.86699,13.42177 10.48612,14.85756 1.81446,0.82607 4.3891,0.007 7.48232,0.36745 11.74717,0.007 22.33818,-8.35324 30.68781,-13.97501 -0.39898,6.73132 -1.76593,15.57316 5.09375,19.6875 2.85354,2.34324 7.14363,2.14765 10.09375,2.375 3.1478,7.76424 13.89869,9.96074 20.15625,4.625 13.79539,37.50378 48.62129,64.69083 86.71875,74.59375 19.71011,5.36898 41.63421,2.62498 58.90625,-8.5 27.15938,-17.17621 47.03652,-44.88763 57.59127,-75.04448 1.27508,-1.48522 0.81343,-8.35193 3.15873,-5.61177 6.99889,5.76792 18.75839,1.4949 20.375,-7.46875 1.23519,-2.9181 1.11713,-6.99676 2.4375,-9.3125 7.53831,-0.5396 12.25877,-8.12231 11.5625,-15.28125 -0.34137,-4.94409 5.66282,-0.36722 8.25,-0.0625 5.96233,3.70226 14.70498,3.64872 18.875,-2.65625 5.10367,-6.01901 1.91732,-14.56402 -3.12743,-19.5216 -1.33766,-2.61355 -5.26421,-5.67951 -5.12257,-8.38465 5.38082,0.51398 12.00161,4.43138 17.375,0.3125 4.62569,-3.02202 7.22709,-9.13588 5.5625,-14.53125 -0.2024,-2.13759 -4.11811,-6.1966 -6.125,-8.90625 -2.16096,-2.20504 3.42261,-0.81568 4.875,-2.21875 7.44882,-2.80614 10.41568,-13.34118 5.1875,-19.46875 -2.46188,-3.31832 -8.08614,-6.88543 -12.75,-8.8125 6.9947,-1.37262 16.81855,-1.18266 19.53125,-9.5 3.39565,-7.3952 -2.14468,-14.75667 -8.29583,-18.41802 C 886.49947,203.78977 867.55106,199.31764 849.25,199.90625 z m 23.8125,97.21875 c 1.80513,0.23168 4.23921,-0.0228 0,0 z m 0.0312,0 c 1.27729,3.10879 3.77174,-0.74703 0,0 z"
       id="path3899"
       inkscape:connector-curvature="0" />
    <path
       style="font-size:medium;font-style:normal;font-variant:normal;font-weight:normal;font-stretch:normal;text-indent:0;text-align:start;text-decoration:none;line-height:normal;letter-spacing:normal;word-spacing:normal;text-transform:none;direction:ltr;block-progression:tb;writing-mode:lr-tb;text-anchor:start;baseline-shift:baseline;color:#000000;fill:#000000;fill-opacity:1;fill-rule:nonzero;stroke:none;stroke-width:1;marker:none;visibility:visible;display:inline;overflow:visible;enable-background:accumulate;font-family:Sans;-inkscape-font-specification:Sans"
       d="m 852.96875,205.625 c -1.17616,-0.007 -2.39292,-0.006 -3.625,0.0312 -6.43125,0.19357 -12.87251,1.01506 -19.25,2.3125 -23.93131,4.86859 -46.79863,16.61482 -62.90625,30.875 C 724.31,224.51915 677.91876,236.2224 643.5,259.5 c -5.24127,-4.6528 -12.47995,-8.54836 -21.53125,-12.375 -12.1737,-5.14671 -27.15769,-9.74136 -42.4375,-12.625 -15.27613,-2.88294 -30.81243,-4.08026 -44.34375,-2 -13.55757,2.0843 -25.95386,7.84817 -31.59375,19.75 a 3.9895504,3.9895504 0 0 0 -0.0312,0.0312 c -1.09666,2.34841 -0.86857,4.94642 0.65625,7.0625 1.52483,2.1161 3.94464,3.13869 6.5,2.84375 5.60509,-0.67702 14.57023,-0.18111 22.75,1.21875 2.93794,0.50279 5.81702,1.13723 8.4375,1.84375 -7.05819,4.88142 -15.13909,9.16644 -23.65625,13.34375 -0.0215,0.0105 -0.041,0.0207 -0.0625,0.0312 -3.21169,1.52391 -4.72811,4.90025 -3.6875,8.34375 1.03812,3.43524 4.14581,5.37213 7.65625,4.875 l 0,0.0312 c 0.0287,-0.004 0.065,-0.0275 0.0937,-0.0312 5.43617,-0.71183 12.30121,-2.60397 18.1875,-3.46875 2.96518,-0.43562 5.70072,-0.57045 7.15625,-0.40625 0.28616,0.0323 0.26331,0.0773 0.4375,0.125 -0.0166,0.028 0.0808,-0.3409 -0.25,0.5625 -0.53149,1.45131 -2.10246,4.03111 -4.25,6.59375 -4.27362,5.0997 -10.91164,10.68145 -16.03125,14.125 0.12689,-0.0854 -0.0767,0.0425 -0.0625,0.0312 -0.0133,0.008 -0.0181,0.0229 -0.0312,0.0312 -0.0526,0.0334 0.0943,-0.0732 -0.0625,0.0312 -3.29599,2.13245 -4.17173,6.24183 -2.09375,9.5625 2.07312,3.31296 6.1321,4.3026 9.5,2.28125 0.0416,-0.025 0.0836,-0.0366 0.125,-0.0625 4.42608,-2.53427 11.2222,-4.19161 16.65625,-4.46875 2.74347,-0.13992 5.19557,0.0902 6.625,0.40625 0.0779,0.0172 0.086,0.0439 0.15625,0.0625 0.0377,0.49065 0.0894,1.05137 -0.0625,1.84375 -0.39024,2.03529 -1.47907,4.92467 -3.09375,7.84375 -3.22957,5.83853 -8.82492,12.00863 -13.875,14.90625 -2.58729,1.48499 -3.85238,4.20044 -3.40625,7.125 0.44397,2.91055 2.48669,5.09965 5.34375,5.75 0.0137,0.003 0.0175,0.0282 0.0312,0.0312 l 0,-0.0312 c 12.66197,2.9022 23.26357,-4.46467 30.9375,-10.28125 3.84125,-2.91154 7.26774,-5.66304 9.65625,-7.125 0.82512,-0.50504 1.2059,-0.57916 1.65625,-0.71875 0.28311,0.77826 0.65137,1.83797 0.84375,3.46875 0.4746,4.02313 0.31102,9.93761 -0.125,15.8125 -0.21928,3.17479 1.55855,5.88843 4.5,7 2.94142,1.11159 6.06458,0.27665 8,-2.25 a 3.9895504,3.9895504 0 0 0 0.0312,-0.0625 c 1.26748,-1.69769 2.26311,-2.84668 3.375,-4.25 -0.51165,2.13493 -0.64295,3.35352 -1.34375,5.90625 -0.68628,2.52004 0.20827,4.86336 1.625,6.4375 1.41673,1.57414 3.64059,2.73046 6.21875,2.3125 a 3.9895504,3.9895504 0 0 0 0.0312,0 c 2.7696,-0.4537 4.72211,-2.10547 5.875,-3.3125 1.20385,-1.26039 2.11787,-2.60853 2.9375,-3.96875 0.39326,-0.65263 0.69359,-1.40749 1.0625,-2.09375 5.77091,24.97448 21.72371,45.32525 40.75,59.5 24.50194,18.25416 53.75435,27.3499 75.8125,23.25 23.64072,-4.39405 45.8307,-23.72804 61.71875,-47.1875 12.0428,-17.78177 20.36349,-38.16548 21.875,-57.59375 1.65902,3.19914 3.3418,6.98981 4.96875,11.8125 0.96192,2.86928 3.48814,4.7001 6.5,4.75 3.01181,0.0499 5.61116,-1.64195 6.6875,-4.53125 a 3.9895504,3.9895504 0 0 0 0,-0.0312 c 2.08597,-5.62601 2.75612,-11.07175 2.71875,-16.28125 1.78973,1.45071 4.12472,1.95403 6.4375,1.21875 2.89909,-0.92168 4.7884,-3.41091 4.875,-6.46875 3e-4,-0.0106 -2.6e-4,-0.0206 0,-0.0312 0.0989,-3.20043 0.6035,-6.56162 1.34375,-8.75 0.48341,-1.42911 1.23847,-2.23494 1.40625,-2.5 0.19125,0.052 2.02502,-0.2638 4.6875,0.25 3.15847,0.60952 7.53317,2.03234 12.59375,4.25 0.0136,0.006 0.0176,0.0253 0.0312,0.0312 l 0,-0.0312 c 2.96913,1.31805 6.19322,0.56266 8.25,-1.96875 2.048,-2.52064 2.11834,-5.81338 0.25,-8.4375 -0.0143,-0.0204 -0.0169,-0.0422 -0.0312,-0.0625 -3.43822,-4.89111 -6.81946,-8.96008 -8.46875,-11.90625 -1.74765,-3.12188 -1.88439,-3.73022 -1.0625,-5.6875 0.51697,-1.23113 0.87787,-2.25287 2.375,-3.21875 1.55701,-1.00452 4.07942,-2.15389 11.625,0.53125 l 0,0.0312 c 0.0227,0.008 0.0397,-0.008 0.0625,0 3.2593,1.18463 6.6343,-0.01 8.40625,-2.96875 1.77495,-2.96435 1.18889,-6.52646 -1.375,-8.8125 -10e-4,-10e-4 -0.0295,-0.0296 -0.0312,-0.0312 -0.12718,-0.1211 -1.01707,-1.17164 -2.0625,-2.53125 -1.05951,-1.37792 -2.39108,-3.11029 -3.96875,-4.84375 -1.12189,-1.23268 -2.42886,-2.45312 -3.9375,-3.5625 2.99726,-2.24143 6.45758,-3.18427 11.59375,-3.3125 0.0106,-1.9e-4 0.0206,2.3e-4 0.0312,0 2.87427,-0.0628 5.32128,-1.7356 6.375,-4.46875 1.04918,-2.72131 0.38284,-5.55433 -1.71875,-7.5625 l 0.0312,-0.0312 c -0.0168,-0.0162 -0.0457,-0.0151 -0.0625,-0.0312 -5.21571,-5.00001 -12.31859,-7.05191 -17.5,-9.125 -1.84311,-0.73744 -2.92622,-1.29911 -4.0625,-1.875 1.07838,-1.40468 2.91394,-2.69703 6,-3.96875 4.70378,-1.93835 11.26496,-3.09882 16.75,-3.75 2.80964,-0.32518 4.95343,-2.17179 5.8125,-4.8125 0.85659,-2.63311 0.13792,-5.35516 -1.90625,-7.25 l 0.0312,-0.0312 c -0.006,-0.006 -0.0253,0.006 -0.0312,0 -13.67923,-12.68603 -31.32428,-17.82925 -49.34375,-17.9375 z"
       id="path3931"
       inkscape:connector-curvature="0" />
  </g>
  <g
     inkscape:groupmode="layer"
     id="layer9"
     inkscape:label="Border Body"
     style="display:inline"
     sodipodi:insensitive="true"
     transform="translate(-421.0625,-129.50538)">
    <path
       style="font-size:medium;font-style:normal;font-variant:normal;font-weight:normal;font-stretch:normal;text-indent:0;text-align:start;text-decoration:none;line-height:normal;letter-spacing:normal;word-spacing:normal;text-transform:none;direction:ltr;block-progression:tb;writing-mode:lr-tb;text-anchor:start;baseline-shift:baseline;color:#000000;fill:#ffffff;fill-opacity:1;fill-rule:nonzero;stroke:none;stroke-width:1;marker:none;visibility:visible;display:inline;overflow:visible;enable-background:accumulate;font-family:Sans;-inkscape-font-specification:Sans"
       d="m 790.625,400.15625 c -14.6923,0.0614 -25.79328,11.00766 -39.40625,14.71875 -12.17842,4.1956 -24.58341,7.81028 -36.6875,12.125 -8.32461,-5.47265 -18.90713,-2.06383 -27.90539,-1.72531 -6.92392,-2.11803 -13.70344,-1.48172 -21.53211,-3.93094 -4.74643,1.15718 -8.71854,-0.52652 -11.77945,-2.48138 -5.18217,2.74991 -8.7556,4.44799 -9.3768,10.51263 -16.60647,9.64004 -34.74693,18.78184 -46.5,34.375 -7.65129,11.5505 -1.28077,26.10157 3.79869,37.34331 2.00428,4.27451 4.40605,8.4587 6.82631,12.43794 -4.49967,12.64167 4.23669,26.51832 16.53125,30.25 4.20807,2.15697 9.79802,1.17399 13.58595,2.6758 3.16312,3.05514 2.22225,4.61997 -1.83595,5.5742 -17.86955,8.41926 -35.9577,23.25199 -38.78125,44 -0.86013,9.66927 1.82808,21.86998 12.28125,25.1875 22.00835,9.69161 47.26341,8.65312 70.77298,6.30916 9.03163,-1.82753 21.09997,-1.75142 25.88327,-11.18416 3.58511,6.29038 9.93767,10.12277 17.0625,11.0625 20.89319,4.59887 43.20703,2.65553 63.65625,-3.125 9.19731,-4.24723 9.46241,-15.69026 10.375,-24.46875 0.61421,-7.26155 -1.19914,-15.34851 -2.375,-21.78125 6.29416,-1.23268 12.03768,0.99534 17.625,3.46875 7.68667,1.72947 13.81411,-6.70331 11.51815,-13.79803 -0.7782,-3.01258 3.76371,-7.74003 5.97729,-3.67572 5.72111,6.05652 16.97573,1.87429 17.26169,-6.48156 1.47208,-9.93203 6.1404,-21.78 16.43037,-25.20094 8.68687,-2.21514 16.05213,4.42951 24,6.46875 9.44625,0.54213 13.14839,-10.48493 13.9375,-18.125 0.9769,-8.96386 -0.96786,-18.717 2.9375,-27 12.27193,-6.48151 22.64585,-17.29773 25.40625,-31.3125 2.46066,-10.43499 2.46073,-21.525 -2.5625,-30.6875 -7.88261,-15.59574 -27.02334,-18.90939 -42.84375,-20 -14.2305,-1.57296 -29.16198,0.10124 -42.875,-4.125 -13.97763,-6.77588 -23.44172,-17.90085 -39.78125,-18.5 -2.08804,4.09414 -5.12669,9.16243 -11.625,11.09375 z"
       id="path3953"
       inkscape:connector-curvature="0"
       sodipodi:nodetypes="ccccccccccccccccccccccccccccccccccc" />
    <path
       style="font-size:medium;font-style:normal;font-variant:normal;font-weight:normal;font-stretch:normal;text-indent:0;text-align:start;text-decoration:none;line-height:normal;letter-spacing:normal;word-spacing:normal;text-transform:none;direction:ltr;block-progression:tb;writing-mode:lr-tb;text-anchor:start;baseline-shift:baseline;color:#000000;fill:#000000;fill-opacity:1;fill-rule:nonzero;stroke:none;stroke-width:1;marker:none;visibility:visible;display:inline;overflow:visible;enable-background:accumulate;font-family:Sans;-inkscape-font-specification:Sans"
       d="m 797.75,393.5625 c -4.96296,-0.0291 -10.28371,1.10814 -15.65625,3.8125 a 4.6230075,4.6230075 0 0 0 -0.3125,0.1875 4.6230075,4.6230075 0 0 0 -0.0625,0.0312 c -19.74478,11.24045 -35.84444,14.00684 -67.90625,25.375 -1.92758,-1.46142 -4.21295,-3.00549 -7.59375,-3.40625 -7.10645,-0.8424 -13.45843,0.77837 -19.1875,1.625 l -13.59375,-5.09375 -0.0312,0 -0.9375,-0.375 a 4.6230075,4.6230075 0 0 0 -3.0625,-0.0937 l -0.90625,0.3125 -0.0625,0 0,0.0312 c -6.88381,2.10792 -11.47597,3.95135 -14.90625,6.8125 -1.75399,1.46297 -3.62595,3.69448 -4.1875,6.75 -0.19795,1.07711 -0.15703,2.07807 -0.0312,3.03125 -8.5364,4.59859 -17.96515,9.96202 -26.4375,15.6875 -5.92976,4.00724 -11.30166,8.04276 -15.5,12.15625 -4.0544,3.97246 -8.19735,8.5716 -8.09375,15.03125 0.11891,7.41349 3.05782,15.13529 6.4375,22.46875 2.60289,5.64794 5.49611,10.63316 8.28125,14.84375 -1.8376,4.56171 -2.26359,9.28644 -0.75,13.5625 1.91326,5.40521 6.10441,9.13165 10.59375,11.3125 4.45833,2.16578 9.50388,3.05813 14.4375,2.53125 0.63231,-0.0675 1.22039,-0.34983 1.84375,-0.46875 2.74906,4.57346 5.94531,8.93631 9.5625,13.0625 -10.46077,2.93726 -20.56995,8.38315 -28.84375,15.28125 -6.63828,5.53452 -12.17639,11.99961 -15.40625,19.34375 -3.26221,7.41769 -3.93858,16.10631 0.0312,23.875 a 4.6230075,4.6230075 0 0 0 0,0.0312 c 0.67032,1.30236 1.67217,2.35585 2.9375,3.09375 12.71626,7.45 30.44365,9.27918 47.1875,9.28125 16.7371,0.002 32.05136,-1.94489 41.09375,-5.125 0.009,-0.003 0.0225,0.003 0.0312,0 1.50716,-0.52218 2.75935,-1.48276 3.6875,-2.78125 a 4.6230075,4.6230075 0 0 0 0.0312,-0.0312 c 2.63333,-3.72482 4.64707,-7.36542 6.21875,-10.96875 1.7942,5.11009 4.5422,9.96318 8.9375,13.96875 0.77736,0.70786 1.69272,1.25488 2.6875,1.59375 0.009,0.003 0.0226,-0.003 0.0312,0 22.44603,7.68612 51.16527,3.08849 65.71875,-0.53125 a 4.6230075,4.6230075 0 0 0 0,-0.0312 c 2.51387,-0.63426 4.40255,-2.37718 5.28125,-4.8125 l 0.0312,0 c 0.003,-0.009 -0.003,-0.0226 0,-0.0312 3.86939,-10.82193 4.30941,-26.1872 -1.15625,-39.96875 -0.23198,-0.58493 -0.52484,-1.14247 -0.78125,-1.71875 3.44923,-0.30919 7.15338,-0.68525 10.03125,-0.78125 5.29156,-0.1765 9.83616,0.71591 10.28125,0.9375 a 4.6230075,4.6230075 0 0 0 0.0312,0.0312 l 4.875,2.40625 a 4.6230075,4.6230075 0 0 0 6.625,-4.59375 l -0.53125,-5.40625 c 0.0256,0.26219 0.19677,-1.34231 1.0625,-2.90625 0.86573,-1.56394 2.24114,-3.24864 3.6875,-4.34375 1.50541,-1.13981 3.15511,-1.78248 4.28125,-1.90625 1.29033,-0.14181 1.73942,-0.12146 3,0.84375 l 3.96875,3.0625 a 4.6230075,4.6230075 0 0 0 7.375,-2.90625 l 0.8125,-4.96875 c 0.64055,-3.95053 4.5872,-14.7563 10.90625,-20.53125 3.26089,-2.98011 6.80072,-4.98001 11.46875,-5.46875 4.66803,-0.48874 10.72803,0.58246 18.8125,4.84375 l 2.625,1.375 A 4.6230075,4.6230075 0 0 0 892.9375,531 l 1.40625,-2.625 c 1.96508,-3.63077 2.23618,-7.33701 2.40625,-10.71875 0.17461,-3.47197 0.111,-7.06154 0.1875,-10.59375 0.14986,-6.91934 1.15351,-13.40107 3.65625,-16.96875 0.003,-0.004 0.0287,0.004 0.0312,0 -0.0206,0.0372 1.74205,-1.34582 4.34375,-2.90625 2.61466,-1.5682 5.98315,-3.6463 9.28125,-6.71875 6.58762,-6.1369 12.51643,-16.45802 12.25,-33.28125 -3.5e-4,-0.0219 3.7e-4,-0.0406 0,-0.0625 l 0,-0.0625 a 4.6230075,4.6230075 0 0 0 0,-0.28125 c -0.11508,-1.79855 -0.42046,-3.45882 -0.8125,-5 -0.006,-0.033 -0.0249,-0.0609 -0.0312,-0.0937 -0.0173,-0.067 -0.0136,-0.15224 -0.0312,-0.21875 l -0.0312,0 c -1.34731,-6.55283 -4.81326,-12.03856 -9.75,-15.6875 -6.29813,-4.65519 -14.00595,-6.55444 -22.03125,-7.6875 -16.0771,-2.26988 -34.79159,-1.37555 -48.875,-3.96875 -7.67664,-1.41352 -15.8195,-7.85592 -25.5,-13.625 -6.15075,-3.66554 -13.39017,-6.88888 -21.6875,-6.9375 z"
       id="path3978"
       inkscape:connector-curvature="0" />
  </g>
  <g
     inkscape:groupmode="layer"
     id="layer3"
     inkscape:label="Body Color"
     style="display:inline"
     sodipodi:insensitive="true"
     transform="translate(-421.0625,-129.50538)">
    <path
       style="fill:#3d8100;fill-opacity:1;stroke:none"
       d="m 775.64318,542.75101 c -28.56057,-110.25504 42.20267,-101.29912 130.94534,-108.20415 4.73343,-0.32983 11.61839,2.18946 12.29101,12.70126 0.50975,30.38152 -18.46149,30.40457 -24.36549,38.24532 -8.58124,11.85297 -2.99831,32.11796 -6.87243,39.27592 -36.18807,-19.07456 -50.3486,14.92411 -52.25816,26.70115 -10.75892,-8.238 -25.14622,5.93178 -24.25238,15.08611 -12.67863,-6.31221 -53.61593,6.92852 -67.46114,-3.24496 -2.6839,-1.97214 35.97746,-17.71786 31.97325,-20.56065"
       id="path4162"
       inkscape:connector-curvature="0"
       sodipodi:nodetypes="cccccccsc" />
    <path
       style="color:#000000;fill:#90908f;fill-opacity:1;stroke:none;stroke-width:6;marker:none;visibility:visible;display:inline;overflow:visible;enable-background:accumulate"
       d="m 749.34532,558.33624 c 34.65007,-2.98613 39.01858,36.78206 32.83481,54.03921 -13.58593,3.37909 -41.95298,7.39676 -61.44025,0.71327 -11.86564,-10.81354 -9.9893,-28.97786 -5.91077,-44.31958 z"
       id="path4058"
       inkscape:connector-curvature="0"
       sodipodi:nodetypes="ccccc" />
    <path
       style="color:#000000;fill:#90908f;fill-opacity:1;stroke:none;stroke-width:6;marker:none;visibility:visible;display:inline;overflow:visible;enable-background:accumulate"
       d="m 668.12091,558.11921 c -27.31619,-2.27089 -67.06632,27.7641 -55.8657,49.6827 20.70052,12.12769 67.52114,8.61229 81.93973,3.53127 10.19202,-14.41657 10.16441,-26.08347 9.92332,-41.85858 z"
       id="path4050"
       inkscape:connector-curvature="0"
       sodipodi:nodetypes="ccccc" />
    <path
       style="color:#000000;fill:#90908f;fill-opacity:1;stroke:none;stroke-width:6;marker:none;visibility:visible;display:inline;overflow:visible;enable-background:accumulate"
       d="m 662.603,434.11519 c -20.11804,10.11861 -55.86474,30.68882 -55.69576,41.22519 0.16897,10.53637 9.79505,28.85975 15.80474,36.85827 -0.10662,0.15379 3.16581,4.18689 3.06508,4.33932 -0.1089,0.16477 -3.28813,-4.08035 -3.39024,-3.91719 -10.77619,17.21952 15.68411,25.95094 23.64783,15.61024 l 38.69304,-94.80776 z"
       id="path4046"
       inkscape:connector-curvature="0"
       sodipodi:nodetypes="czcssccc" />
    <path
       style="color:#000000;fill:#7aa1bb;fill-opacity:1;stroke:none;stroke-width:6;marker:none;visibility:visible;display:inline;overflow:visible;enable-background:accumulate"
       d="m 671.48121,438.21203 c -45.41609,33.79144 -43.42442,80.49638 -14.31266,111.64304 26.68393,28.54913 88.2296,33.38061 118.81359,-7.90067 0,0 38.67176,-60.07785 22.71506,-84.48782 -18.06356,-27.63297 -60.0367,-31.54481 -89.30268,-28.46838 -8.75417,0.92024 -37.91331,9.21383 -37.91331,9.21383 z"
       id="path4048"
       inkscape:connector-curvature="0"
       sodipodi:nodetypes="cscssc" />
    <path
       style="color:#000000;fill:none;stroke:none;stroke-width:3;marker:none;visibility:visible;display:inline;overflow:visible;enable-background:accumulate"
       d="m 676.65387,502.01819 c 2.72696,-1.08958 5.07579,-2.15795 7.61378,-5.16103"
       id="path4084"
       inkscape:connector-curvature="0"
       sodipodi:nodetypes="cc" />
    <path
       style="color:#000000;fill:none;stroke:none;stroke-width:3;marker:none;visibility:visible;display:inline;overflow:visible;enable-background:accumulate"
       d="m 672.598,492.92261 c 3.2471,-0.67375 7.22412,-4.05017 7.91806,-4.77885"
       id="path4082"
       inkscape:connector-curvature="0"
       sodipodi:nodetypes="cc" />
    <path
       style="color:#000000;fill:none;stroke:none;stroke-width:3;marker:none;visibility:visible;display:inline;overflow:visible;enable-background:accumulate"
       d="m 671.07061,489.22756 c 2.23096,5.65776 4.72356,11.21643 6.73575,16.95623 -8.54185,4.59822 -14.75864,3.34494 -17.13503,-2.23648 -2.78575,-6.54289 5.30764,-14.18458 10.39928,-14.71975 z"
       id="path4080"
       inkscape:connector-curvature="0"
       sodipodi:nodetypes="ccsc" />
    <path
       sodipodi:nodetypes="sss"
       inkscape:connector-curvature="0"
       id="path3795"
       d="m 778.96043,440.6072 c -35.4479,-2.94573 -41.96112,44.87424 -8.67546,47.3201 35.30985,2.59461 47.08095,-44.12859 8.67546,-47.3201 z"
       style="fill:#90908f;fill-opacity:1;stroke:none" />
    <path
       style="fill:#90908f;fill-opacity:1;stroke:none"
       d="m 759.87389,472.10089 c 0,0 8.71534,15.30747 12.64086,23.50475 5.29006,11.04671 -20.33879,20.57099 -19.89695,30.10969 0.61992,13.38315 14.82112,28.73709 28.21812,28.62125 11.68993,-0.10108 24.68302,-10.98418 20.19632,-24.54118 -2.76491,-8.35445 -8.7159,-10.2103 -8.7159,-10.2103 -1.26152,-1.27317 20.08972,-19.81508 20.76049,-27.8985 1.22014,-14.70393 -15.77389,-34.03715 -14.90692,-34.90412"
       id="path3798"
       inkscape:connector-curvature="0"
       sodipodi:nodetypes="csssscsc" />
    <path
       style="fill:#cbcbcb;fill-opacity:1;stroke:none"
       d="m 684.97322,448.84289 c 0.98274,5.73825 3.11459,5.65648 7.65585,4.95378 l 34.67648,-13.73549 -22.29202,-12.8348 -26.11995,2.47689 z"
       id="path3834"
       inkscape:connector-curvature="0"
       sodipodi:nodetypes="cccccc" />
    <path
       style="fill:#4e9a06;fill-opacity:1;stroke:none"
       d="m 695.15965,451.5155 c 22.41435,-9.18931 23.20406,0.17003 41.66671,-3.71813 8.53844,0.69661 38.17498,-22.21743 51.04994,-1.11333 0,0 5.51969,7.15162 10.91239,11.80325 8.85306,7.63647 22.23883,9.73792 32.04569,6.438 11.02557,-3.71 18.75877,-15.94332 28.58717,-17.94827 18.79153,-3.83338 37.6405,12.39716 37.6405,12.39716 -7.58218,-13.00168 14.73265,-42.56803 21.66249,-11.50542 -0.0613,-29.9954 -44.21697,-20.57142 -75.17845,-26.27242 -20.81496,-3.8327 -34.57444,-29.19265 -57.99629,-17.40285 -21.2158,12.09249 -37.87131,14.70701 -70.71973,26.46608 -10.18121,6.57282 -14.74091,11.14793 -19.67042,20.85593 z"
       id="path3832"
       inkscape:connector-curvature="0"
       sodipodi:nodetypes="cccsssccsccc" />
    <path
       style="fill:#4e9a06;fill-opacity:1;stroke:none"
       d="m 670.7222,423.21242 c -26.13397,7.98902 -8.93043,12.92983 -1.16573,14.99385 8.78628,2.33557 13.67128,3.59565 15.68292,9.76112 l 8.09452,-16.29593 z"
       id="path4169"
       inkscape:connector-curvature="0"
       sodipodi:nodetypes="csccc" />
    <path
       style="fill:none;stroke:none"
       d="m 644.98577,510.39694 c 0,0 1.11708,-6.38077 3.62805,-6.65142 3.97777,-0.42875 1.78111,9.75471 5.72291,9.07012 3.49881,-0.60765 6.16901,-9.01108 6.16901,-9.01108"
       id="path4179"
       inkscape:connector-curvature="0"
       sodipodi:nodetypes="cssc" />
  </g>
  <g
     inkscape:groupmode="layer"
     id="layer2"
     inkscape:label="Body Shade"
     style="display:none"
     sodipodi:insensitive="true"
     transform="translate(-421.0625,-129.50538)">
    <path
       style="color:#000000;fill:#4e7c99;fill-opacity:1;fill-rule:nonzero;stroke:none;stroke-width:2;marker:none;visibility:visible;display:inline;overflow:visible;enable-background:accumulate"
       d="m 748.54117,468.27572 c -2.748,45.99584 -30.7464,75.03059 -71.94861,94.33367 30.49879,12.11319 58.44393,10.85772 88.12992,-11.50172 -8.0648,-12.4114 -14.71879,-21.83921 -8.91703,-30.65038 4.67825,-7.1049 16.79068,-12.79651 17.15184,-21.70902 0.17314,-4.27275 -3.83815,-8.70247 -6.76681,-13.97412 -1.48671,-2.67612 -5.74698,0.0866 -8.39244,-1.45398 -4.20941,-2.45139 -6.35892,-10.95698 -9.25687,-15.04445 z"
       id="path4532"
       inkscape:connector-curvature="0"
       sodipodi:nodetypes="cccssssc" />
    <path
       style="color:#000000;fill:#7b7b7a;fill-opacity:1;fill-rule:nonzero;stroke:none;stroke-width:2;marker:none;visibility:visible;display:inline;overflow:visible;enable-background:accumulate"
       d="m 714.9835,571.37344 c 14.77169,4.34373 36.02952,-12.7341 49.01009,-11.01606 18.04323,2.38811 22.4165,34.24086 17.97047,51.61432 -12.19645,4.15917 -29.27853,10.6797 -58.44805,1.30366 -7.39372,-2.37658 -9.45555,-5.55049 -8.6671,-8.92738 1.94075,-8.31209 21.15086,-17.85402 20.62087,-19.76204 -0.94464,-3.40077 -17.55706,-11.10068 -20.48628,-13.2125 z"
       id="path4534"
       inkscape:connector-curvature="0"
       sodipodi:nodetypes="cscsssc" />
    <path
       style="color:#000000;fill:#7b7b7a;fill-opacity:1;fill-rule:nonzero;stroke:none;stroke-width:2;marker:none;visibility:visible;display:inline;overflow:visible;enable-background:accumulate"
       d="m 680.40421,566.18381 c 2.5372,7.50295 8.78826,25.29204 2.27822,31.08411 -6.31237,5.61621 -40.10471,16.06562 -40.14015,17.06157 -0.34402,9.66664 48.41141,-2.72294 51.37968,-4.6307 3.7233,-2.39302 2.89352,-6.44547 6.24367,-11.75205 4.9621,-7.85992 5.25988,-20.27109 2.36793,-25.00435 -1.4186,-2.32184 -6.52501,-1.99087 -9.88509,-3.13849 -5.3024,-2.09058 -9.46639,-2.78116 -12.24426,-3.62009 z"
       id="path4536"
       inkscape:connector-curvature="0"
       sodipodi:nodetypes="cssssscc" />
    <path
       style="color:#000000;fill:#306500;fill-opacity:1;fill-rule:nonzero;stroke:none;stroke-width:2;marker:none;visibility:visible;display:inline;overflow:visible;enable-background:accumulate"
       d="m 806.85221,465.73916 c 20.99394,4.17913 42.57128,-15.26867 49.56438,-16.81567 13.03323,-2.88319 23.49364,5.83373 34.45211,6.53821 7.77775,0.50001 7.0862,-19.38141 18.8296,-18.32449 17.68742,1.59189 7.4789,28.86397 -0.51022,34.85589 -19.28923,14.46712 -20.14962,-4.85019 -45.09387,-3.30191 -14.01471,0.86989 -54.9256,32.62845 -57.242,-2.95203 z"
       id="path4540"
       inkscape:connector-curvature="0"
       sodipodi:nodetypes="csssssc" />
    <path
       style="color:#000000;fill:#306500;fill-opacity:1;fill-rule:nonzero;stroke:none;stroke-width:2;marker:none;visibility:visible;display:inline;overflow:visible;enable-background:accumulate"
       d="m 835.45579,468.01626 c 9.44975,0.0382 22.31326,9.65417 29.36731,13.66389 15.03827,8.54819 22.78176,13.16596 25.48044,21.17156 -0.30133,8.0056 -0.47611,15.6017 -3.95611,17.10957 -4.88256,2.11559 -13.91986,-0.44305 -20.46041,-0.61898 -3.25784,-0.0876 -9.30088,6.43408 -20.67034,9.09 0.73785,-6.73107 2.01582,-20.71494 -1.74873,-33.70794 -3.27906,-11.31737 -11.96216,-21.8403 -8.01216,-26.7081 z"
       id="path4542"
       inkscape:connector-curvature="0"
       sodipodi:nodetypes="cscsscsc" />
    <path
       style="color:#000000;fill:#306500;fill-opacity:1;fill-rule:nonzero;stroke:none;stroke-width:2;marker:none;visibility:visible;display:inline;overflow:visible;enable-background:accumulate"
       d="m 837.82156,540.22898 c -4.33412,-12.9077 -24.6329,-41.51605 -27.67177,-39.941 -8.2638,4.28313 2.71668,22.98975 2.4464,35.97204 -0.15761,7.57033 0.23028,17.95295 -0.22873,22.56667 4.31396,-4.04834 7.09526,-9.34091 13.35621,-9.33126 3.35723,0.005 7.17688,3.38209 8.92347,2.50878 3.79934,-1.8997 0.63116,-7.32168 3.17442,-11.77523 z"
       id="path4544"
       inkscape:connector-curvature="0"
       sodipodi:nodetypes="csscssc" />
    <path
       style="color:#000000;fill:#306500;fill-opacity:1;fill-rule:nonzero;stroke:none;stroke-width:2;marker:none;visibility:visible;display:inline;overflow:visible;enable-background:accumulate"
       d="m 775.94736,567.13613 c 8.88152,-1.34938 21.20209,-2.10119 29.08263,-2.5147 3.06609,-5.51903 3.61281,-45.74329 -7.31318,-49.94407 0.0214,0.75594 -5.59629,2.87904 -4.4728,5.27201 3.01482,6.42135 14.0139,16.97829 6.36791,24.83875 -6.71905,6.90752 -22.20472,10.11607 -31.49133,7.91865 -2.35169,-0.55647 -3.78405,4.12921 -3.39811,5.17965 2.20018,5.98841 5.76979,3.69625 11.22488,9.24971 z"
       id="path4546"
       inkscape:connector-curvature="0"
       sodipodi:nodetypes="cccssssc" />
    <path
       style="color:#000000;fill:#3d8100;fill-opacity:1;fill-rule:nonzero;stroke:none;stroke-width:2;marker:none;visibility:visible;display:inline;overflow:visible;enable-background:accumulate"
       d="m 784.07611,438.9191 c 19.82713,12.40642 50.44351,-6.32584 56.2117,-17.33532 1.95406,0.94736 1.99494,0.32824 4.52797,-0.16243 -9.34029,24.11232 -41.15649,16.91243 -38.51768,42.83045 -11.15886,-7.32971 -21.43381,-12.36135 -22.22199,-25.3327 z"
       id="path4548"
       inkscape:connector-curvature="0"
       sodipodi:nodetypes="ccccc" />
    <path
       style="color:#000000;fill:#446d86;fill-opacity:1;fill-rule:nonzero;stroke:none;stroke-width:2;marker:none;visibility:visible;display:inline;overflow:visible;enable-background:accumulate"
       d="m 754.86101,484.10534 c 6.04806,15.03148 -3.3733,27.44477 -4.15757,42.15011 6.02777,-10.53529 16.68117,-15.5605 24.4644,-23.9665 -2.56683,-7.22181 -6.13261,-14.22518 -10.82344,-20.28648 -10.59866,3.84092 2.32665,8.53352 -9.48339,2.10287 z"
       id="path4550"
       inkscape:connector-curvature="0" />
    <path
       style="color:#000000;fill:#7b7b7a;fill-opacity:1;fill-rule:nonzero;stroke:none;stroke-width:2;marker:none;visibility:visible;display:inline;overflow:visible;enable-background:accumulate"
       d="m 772.60956,478.99766 c -1.95077,-8.03302 -2.43392,-18.17572 5.50016,-21.721 7.21556,-3.22422 4.09471,-14.04734 6.76917,-14.02909 2.76086,0.0188 9.36659,12.56919 12.04621,15.82033 32.11291,38.96214 -0.0548,44.20684 -7.32324,60.44205 -0.0475,0.34222 25.70758,18.56406 7.62903,26.69952 -3.03766,1.36697 -5.99527,4.29497 -9.64501,5.08564 -14.80166,3.2066 -32.79471,-1.43302 -33.67524,-21.2453 -0.64781,-14.57585 18.33455,-19.2642 20.55212,-31.90454 1.50726,-8.59146 -1.17163,-10.69602 -1.8532,-19.14761 z"
       id="path4538"
       inkscape:connector-curvature="0"
       sodipodi:nodetypes="cssscssssc" />
  </g>
  <g
     inkscape:groupmode="layer"
     id="layer8"
     inkscape:label="Body Ink"
     style="display:inline"
     sodipodi:insensitive="true"
     transform="translate(-421.0625,-129.50538)">
    <path
       style="font-size:medium;font-style:normal;font-variant:normal;font-weight:normal;font-stretch:normal;text-indent:0;text-align:start;text-decoration:none;line-height:normal;letter-spacing:normal;word-spacing:normal;text-transform:none;direction:ltr;block-progression:tb;writing-mode:lr-tb;text-anchor:start;baseline-shift:baseline;color:#000000;fill:#000000;fill-opacity:1;fill-rule:nonzero;stroke:none;stroke-width:6;marker:none;visibility:visible;display:inline;overflow:visible;enable-background:accumulate;font-family:Sans;-inkscape-font-specification:Sans"
       d="m 797.71875,398.1875 c -4.26336,-0.025 -8.77127,0.91648 -13.53125,3.3125 l -0.0625,0.0625 -0.0625,0.0312 c -20.79058,11.85012 -37.23147,14.43003 -70.25,26.25 l -0.3125,0.0937 -0.3125,0.1875 c -0.0255,0.0165 -0.0371,0.0461 -0.0625,0.0625 -2.34089,-1.75552 -4.625,-3.69786 -7.4375,-4.03125 -6.37252,-0.7554 -12.76493,0.94478 -19.15625,1.78125 l -14.75,-5.53125 -0.96875,-0.375 -0.96875,0.3125 c -6.70416,2.04943 -10.75717,3.84257 -13.34375,6 -1.29329,1.07871 -2.3179,2.36024 -2.625,4.03125 -0.29595,1.61032 0.30235,3.22868 1.125,4.3125 -9.22703,4.86301 -20.136,11.05709 -29.53125,17.40625 -5.80303,3.9216 -10.98112,7.84043 -14.84375,11.625 -3.86263,3.78457 -6.78844,7.31081 -6.71875,11.65625 0.0987,6.15356 2.73343,13.50571 6,20.59375 2.91725,6.33006 6.29249,12.09626 9.28125,16.34375 -2.38989,4.43334 -2.88601,8.81796 -1.59375,12.46875 1.41771,4.00522 4.617,6.90747 8.28125,8.6875 3.66425,1.78003 7.86848,2.52496 11.90625,2.09375 1.65453,-0.1767 3.10864,-0.52215 4.5,-1.125 3.38691,6.1967 7.64629,12.07516 12.6875,17.46875 1.14908,1.2294 2.36395,2.42142 3.625,3.5625 -12.2222,1.69515 -24.96088,7.93748 -34.78125,16.125 -6.2428,5.2048 -11.31917,11.20523 -14.15625,17.65625 -2.83708,6.45102 -3.31616,13.53913 -0.0625,19.90625 0.25974,0.50465 0.66596,0.93283 1.15625,1.21875 11.31053,6.62643 28.48142,8.65423 44.84375,8.65625 16.36233,0.002 31.62897,-2.06826 39.59375,-4.875 0.58685,-0.20099 1.10803,-0.5891 1.46875,-1.09375 9.38371,-13.27321 10.55345,-24.80959 10.53125,-38.1875 1.0286,0.0718 2.0601,0.11897 3.09375,0.15625 -1.17093,5.82011 -1.84968,11.88146 -1.46875,17.78125 0.53765,8.32696 3.29713,16.4769 9.90625,22.5 0.30599,0.27863 0.6703,0.49293 1.0625,0.625 20.68134,7.09302 49.13038,2.82449 63.125,-0.65625 0.95306,-0.24046 1.76519,-0.97986 2.09375,-1.90625 3.41441,-9.52866 3.85727,-24.15606 -1.125,-36.71875 -1.0362,-2.61275 -2.33849,-5.12569 -3.90625,-7.46875 6.1548,-0.58461 12.17553,-1.20365 17.3125,-1.375 5.65905,-0.18876 10.28153,0.33301 12.5,1.4375 l 4.875,2.40625 L 814.125,566.25 c -0.28108,-2.87874 2.42015,-8.23864 6.5625,-11.375 2.07117,-1.56818 4.39033,-2.57377 6.5625,-2.8125 2.17217,-0.23873 4.20862,0.17033 6.3125,1.78125 l 3.96875,3.0625 0.8125,-4.96875 c 0.84026,-5.18225 4.79451,-16.28828 12.34375,-23.1875 7.54924,-6.89922 18.26166,-10.43169 35.5625,-1.3125 l 2.625,1.375 1.40625,-2.625 c 1.39415,-2.57589 1.68029,-5.49965 1.84375,-8.75 0.16346,-3.25035 0.10858,-6.82474 0.1875,-10.46875 0.15726,-7.26117 0.99446,-14.63896 4.59375,-19.65625 4.04808,-5.37602 25.49945,-8.49511 24.96875,-40.125 l 0,-0.0625 0,-0.0625 c -0.10226,-1.59812 -0.35898,-3.05369 -0.71875,-4.40625 -1.098,-5.671 -3.95632,-10.12121 -8.0625,-13.15625 -5.30267,-3.91941 -12.24598,-5.75781 -19.9375,-6.84375 -15.38304,-2.17189 -34.12108,-1.24881 -49.0625,-4 -9.36434,-1.72428 -17.75831,-8.6613 -27.03125,-14.1875 -5.79559,-3.45388 -12.23815,-6.23961 -19.34375,-6.28125 z m 0.1875,5.8125 c 5.63577,0.007 10.6775,2.39719 16.09375,5.625 8.666,5.1645 17.54938,12.79783 29,14.90625 16.02006,2.94981 34.86201,2.02228 49.3125,4.0625 4.98896,0.70438 9.34375,1.81743 12.90625,3.375 -1.75665,0.66077 -3.42751,1.64402 -4.8125,2.9375 -3.26001,3.04463 -5.7522,7.39026 -7.03125,12.03125 -0.50603,1.8361 -0.73043,3.72984 -0.78125,5.625 -7.30565,-4.80967 -19.96773,-11.34914 -33.78125,-8.53125 -5.93406,1.21052 -10.59841,5.18127 -15.15625,8.96875 -4.55784,3.78748 -9.01217,7.489 -13.78125,9.09375 -8.65992,2.91399 -21.19833,0.96238 -29.125,-5.875 C 795.74222,451.89914 788.4375,442 788.4375,442 c -1.8164,-2.85733 -6.90749,-5.96674 -12.25,-6.90625 -5.4404,-0.95673 -11.03285,0.0528 -16.3125,1.625 -5.27965,1.57221 -10.30248,3.76691 -14.4375,5.46875 -4.13502,1.70184 -7.70911,2.67933 -8.375,2.625 l -0.4375,-0.0312 -0.40625,0.0937 c -8.7479,1.84227 -12.76935,0.55317 -18.34375,-0.1875 -4.15313,-0.55183 -8.95659,-0.65541 -15.90625,1.28125 3.39581,-4.81602 7.35781,-8.15255 14.3125,-12.65625 32.29284,-11.52659 49.15334,-14.22608 70.625,-26.4375 0.0421,-0.0239 0.0829,-0.0385 0.125,-0.0625 3.96954,-1.97714 7.53085,-2.8169 10.875,-2.8125 z m -127.21875,22.40625 18.5,6.90625 -4.25,8.5625 c -1.06325,-1.13175 -2.23686,-2.14792 -3.59375,-2.875 -3.06775,-1.64384 -6.64206,-2.52077 -11.03125,-3.6875 -1.9198,-0.51032 -4.3343,-1.19561 -6.4375,-2 -1.95919,-0.74931 -3.4157,-1.69037 -3.84375,-2.09375 0.058,-0.0836 -0.0393,0.0122 0.3125,-0.28125 1.21787,-1.01581 4.6706,-2.71725 10.34375,-4.53125 z m 30.25,3.65625 c 1.15062,-0.0112 2.28688,0.0658 3.4375,0.25 1.21288,0.19414 2.23411,0.90627 3.25,1.65625 -6.66513,4.98565 -10.79576,9.88376 -14.78125,17.5625 -1.61189,0.50233 -3.26886,0.76989 -3.90625,0.53125 -0.38316,-0.14346 -0.574,-0.74609 -0.6875,-1.375 L 696.03125,433 l 1.3125,-2.65625 c 1.19303,-0.15733 2.40072,-0.26968 3.59375,-0.28125 z m -40.28125,8.40625 c 0.35367,0.14199 0.7032,0.30008 1.0625,0.4375 0.94948,0.36314 1.90178,0.67242 2.84375,0.96875 -13.49202,11.21907 -22.39473,23.75265 -27.15625,36.65625 l -2.15625,1.09375 -1.65625,0.8125 1.125,1.4375 0.9375,1.21875 0.0312,0.8125 -1.59375,1.0625 -2.34375,1.625 2.65625,1.03125 0.28125,0.125 c -0.65418,3.00487 -1.07849,6.02378 -1.3125,9.03125 -0.91783,11.79584 1.33632,23.45553 6.21875,34.28125 -0.75278,0.24478 -1.5675,0.43834 -2.4375,0.53125 -2.82657,0.30186 -6.05698,-0.26857 -8.65625,-1.53125 -2.59927,-1.26268 -4.48834,-3.12948 -5.25,-5.28125 -0.45651,-1.28969 -0.52404,-2.81194 -0.0625,-4.59375 0.0899,0.10209 0.17518,0.20379 0.28125,0.3125 0.1005,0.10301 0.15717,0.1957 0.4375,0.40625 0.14016,0.10528 0.30504,0.27108 0.875,0.46875 0.28498,0.0988 0.70274,0.22572 1.40625,0.125 0.70351,-0.10072 1.65646,-0.65086 2.09375,-1.3125 0.9374,-1.41852 0.49461,-2.10676 0.40625,-2.4375 -0.0884,-0.33074 -0.16212,-0.47701 -0.21875,-0.59375 -0.11325,-0.23347 -0.20912,-0.32413 -0.28125,-0.4375 -0.14425,-0.22674 -0.27525,-0.43211 -0.4375,-0.65625 -0.3245,-0.44827 -0.72922,-0.97714 -1.125,-1.5 -0.39578,-0.52286 -0.77587,-1.05242 -1.03125,-1.40625 -0.0732,-0.10137 -0.113,-0.1244 -0.15625,-0.1875 -0.0485,-0.10198 -0.0532,-0.0797 -0.0625,-0.0937 -0.006,-0.009 -0.0293,-0.0593 -0.0312,-0.0625 -0.0624,-0.14076 -0.13555,-0.27671 -0.21875,-0.40625 -2.80606,-3.73469 -6.69011,-10.23012 -9.78125,-16.9375 -3.09114,-6.70738 -5.36721,-13.80469 -5.4375,-18.1875 -0.0148,-0.92275 1.48521,-3.8981 4.90625,-7.25 3.42104,-3.3519 8.37272,-7.16592 14,-10.96875 10.10268,-6.82723 22.24587,-13.63995 31.84375,-18.59375 z m 11.03125,3.40625 c 2.96017,0.82027 5.25617,1.55556 6.84375,2.40625 2.02575,1.08548 2.98958,2.13032 3.78125,4.46875 l -0.0312,0 c 0.26601,1.41058 0.55788,2.68825 1.125,3.78125 0.62822,1.21076 1.63004,2.27085 2.84375,2.875 2.42741,1.20829 5.14539,0.45331 7.46875,0.0937 0.006,-0.005 0.0256,0.005 0.0312,0 l 2.5625,-1.21875 c 10.86498,-4.45436 15.74154,-4.29463 20.78125,-3.625 4.986,0.66249 10.53744,2.04429 20.0625,0.0937 3.38763,0.0913 6.59201,-1.38427 10.59375,-3.03125 2.49537,-1.02701 5.21761,-2.15789 8,-3.21875 -5.4247,4.54805 -8.84153,10.8077 -9.875,17.28125 -1.06175,6.65065 0.26564,13.59132 4.3125,19.09375 3.50092,4.76013 9.05611,8.29668 16.34375,9.59375 1.23761,2.34961 2.40091,4.59916 3.28125,6.4375 0.84242,1.75915 0.55047,3.03265 -0.78125,5.125 -1.33172,2.09235 -3.83363,4.50738 -6.625,6.9375 -2.79137,2.43012 -5.83769,4.89315 -8.3125,7.53125 -2.47481,2.6381 -4.64231,5.59692 -4.46875,9.34375 0.3565,7.69632 4.43188,15.37817 10.15625,21.3125 1.26259,1.30889 2.60997,2.5341 4.03125,3.65625 -13.84195,12.33218 -31.37806,17.98563 -48.75,18.28125 -21.77163,0.37049 -43.07357,-7.78561 -55.6875,-21.28125 -14.06839,-15.05176 -21.46774,-33.69926 -20,-52.5625 1.43145,-18.39685 11.27047,-37.16242 32.3125,-53.375 z m 104.0625,1.59375 c 0.96292,-8e-4 1.94539,0.04 2.96875,0.125 1.0496,0.0872 2.04255,0.22365 3,0.375 1.27687,1.07254 2.48214,2.45914 3.59375,4.28125 l 0.0937,0.125 0.0937,0.15625 c 0,0 5.56613,7.2351 11.34375,12.21875 0.29166,0.44643 0.61267,0.93809 0.96875,1.46875 1.45943,2.17491 3.40891,5.05418 5.34375,8.34375 3.86967,6.57914 7.44369,14.77494 6.9375,20.875 -0.067,0.8079 -1.20172,3.3686 -3.15625,6.09375 -1.95453,2.72515 -4.5892,5.79087 -7.1875,8.65625 -2.5983,2.86538 -5.17097,5.51812 -7.0625,7.625 -0.76327,0.85017 -1.36978,1.58694 -1.90625,2.28125 -1.61153,-0.0123 -4.26818,0.56241 -5.59375,1.15625 -2.31658,1.03782 -3.02439,1.97052 -3.96875,3.34375 -0.49929,1.44037 0.0665,3.01297 1.25,2.4375 3.17202,-1.54238 5.87417,-1.37515 8.25,-0.8125 l 0.71875,0.21875 c 0,0 0.82971,0.24335 2.28125,1.4375 1.45154,1.19415 3.26719,3.24436 4.46875,6.875 1.89672,5.73112 0.18198,10.516 -3.375,14.3125 -3.55698,3.7965 -9.0763,6.23868 -14,6.28125 -2.81058,0.0243 -5.8041,-0.81441 -8.71875,-2.3125 -0.42216,-0.44745 -1.05864,-0.81908 -1.8125,-1.03125 -2.19159,-1.3461 -4.29499,-3.03808 -6.1875,-5 -4.88046,-5.05946 -8.20533,-11.75067 -8.46875,-17.4375 -0.0474,-1.02252 0.80274,-2.79308 2.84375,-4.96875 2.04101,-2.17567 4.97565,-4.56962 7.875,-7.09375 2.89935,-2.52413 5.77795,-5.15158 7.75,-8.25 0.63091,-0.99127 1.1342,-2.10099 1.5,-3.25 1.61226,0.19728 3.19451,0.4076 4.8125,1.0638 -0.82857,-2.07316 -1.05971,-3.66613 -2.46875,-4.1888 1.49429,-1.81836 1.60083,-5.20748 2.3822,-6.63296 -1.07478,0.65164 -2.78391,0.80257 -4.85095,2.66421 -0.0783,-0.19484 -0.1574,-0.40038 -0.25,-0.59375 -4.04423,-8.44518 -11.85643,-21.46191 -12.75,-23.6875 -0.70033,-1.74427 -0.10495,2.62711 -0.67785,6.08119 -0.29923,1.8041 -0.5733,3.62077 -2.82215,4.45006 -1.56969,-1.11169 -2.88002,-2.40591 -3.9375,-3.84375 -2.98575,-4.05966 -4.05559,-9.35189 -3.21875,-14.59375 1.46447,-9.17326 8.43822,-17.97945 21.125,-19.125 0.9062,-0.0818 1.84958,-0.1242 2.8125,-0.125 z m 135.53125,0.3125 c 0.99,0.034 1.89995,0.62256 2.78125,2.03125 0.42445,0.82251 1.17755,2.2001 1.8125,3.65625 -0.35943,26.79513 -16.19014,24.17895 -23.75,34.21875 l -0.0312,0.0312 c -4.94809,6.83462 -5.61671,15.49655 -5.78125,23.09375 -0.0792,3.65754 -0.0297,7.09897 -0.15625,9.96875 -1.55091,-2.24628 -3.01679,-4.53426 -4.3125,-6.96875 -3.46857,-6.51704 -8.21734,-12.28212 -13.15625,-17.75 -4.74911,-5.25776 -10.42638,-9.69781 -15.5625,-14.375 -0.85543,-0.77899 -7.31036,-5.67064 -11.5,-7.625 -1.00971,-0.47101 -1.98617,-0.76113 -2.96875,-0.46875 -3.29106,0.97924 0.87084,4.39708 1.96875,6.03125 3.40078,5.06183 5.99503,10.64646 7.59375,16.5 1.46937,5.37993 2.28763,10.91745 3.40625,16.375 0.69954,3.41294 0.57462,7.86439 1.28125,11.40625 -2.31573,1.23908 -4.41867,2.73529 -6.28125,4.4375 -7.44451,6.80352 -11.37695,15.82054 -13.1875,22.53125 -0.57671,-1.15227 -1.33851,-2.25731 -1.71875,-3.46875 -1.43038,-3.24628 -2.85269,-6.497 -4.46875,-9.65625 -2.62918,-5.49543 -5.07502,-11.0748 -7.84375,-16.5 -1.92034,-3.45565 -3.54258,-7.0862 -5.46875,-10.53125 -0.48803,-0.77062 -1.28386,-1.21282 -2.125,-1.5 -2.42049,0.0723 -1.94538,2.97069 -0.5625,4.09375 2.04632,3.33065 3.66063,6.89652 4.53125,10.71875 1.11433,4.32217 1.84052,8.75784 2.5625,13.15625 0.44912,5.20027 0.27479,10.41399 0.1875,15.625 0.002,0.0943 0.0154,0.17323 0.0312,0.25 -0.51265,0.32841 -1.01632,0.66504 -1.5,1.03125 -4.24861,3.21682 -7.55066,7.68528 -8.59375,12.4375 -3.33838,-0.75419 -7.15649,-0.85946 -11.375,-0.71875 -6.01522,0.20064 -12.7925,0.97235 -19.53125,1.59375 -0.9254,0.0853 -1.60008,0.14394 -2.28125,0.1875 -1.12164,-1.06584 -2.32178,-2.06955 -3.625,-2.96875 -1.88343,-1.29954 -3.9583,-2.38926 -6.21875,-3.25 1.22363,-0.99818 2.42015,-2.03594 3.59375,-3.125 3.71419,1.96787 7.73695,3.12926 11.84375,3.09375 6.76623,-0.0585 13.57213,-3.12793 18.3125,-8.1875 4.74037,-5.05957 7.27748,-12.48662 4.6875,-20.3125 -1.56335,-4.72381 -4.12857,-7.77136 -6.34375,-9.59375 -0.37095,-0.30517 -0.64396,-0.41218 -1,-0.65625 0.24556,-0.28485 0.3307,-0.42219 0.625,-0.75 1.77799,-1.98041 4.36559,-4.68533 7.03125,-7.625 2.66566,-2.93967 5.42694,-6.12279 7.625,-9.1875 2.19806,-3.06471 3.98165,-5.85994 4.25,-9.09375 0.71395,-8.60387 -3.61318,-17.42605 -7.71875,-24.40625 -0.0558,-0.0948 -0.10047,-0.18714 -0.15625,-0.28125 7.82022,2.77543 16.40385,2.95058 23.59375,0.53125 6.25649,-2.10525 11.1965,-6.39834 15.71875,-10.15625 4.52225,-3.75791 8.63691,-6.92432 12.53125,-7.71875 16.78162,-3.42337 35.0625,11.75 35.0625,11.75 3.32526,-1.34904 6.17914,-8.05055 7.21875,-9.875 1.54803,-2.39697 2.7689,-3.87234 4.71875,-5.96875 1.60441,-1.19829 2.97715,-2.07497 4.25,-2.03125 z M 680.4375,486.625 c -0.37629,0.0231 -0.74151,0.19432 -1,0.46875 -0.15798,0.16589 -1.37952,1.25772 -2.78125,2.21875 -1.0106,0.69287 -2.17134,1.35855 -3.21875,1.78125 -0.32533,-0.80024 -0.65275,-1.60488 -0.96875,-2.40625 -0.2145,-0.56627 -0.80071,-0.97011 -1.40625,-0.96875 -0.0526,0.008 -0.10477,0.0181 -0.15625,0.0312 -3.2018,0.33653 -6.62726,2.56693 -9.15625,5.625 -2.33839,2.82759 -3.88757,6.57894 -2.78125,10.25 -0.12053,0.37859 -0.63981,1.96341 -1.5625,3.78125 -0.51948,1.02346 -1.15927,2.04958 -1.78125,2.78125 -0.62198,0.73167 -1.19913,1.09857 -1.53125,1.15625 -0.0977,0.017 -0.14276,0.003 -0.15625,0 -0.009,-0.006 -0.11855,-0.10229 -0.25,-0.375 -0.2629,-0.54543 -0.49841,-1.67192 -0.71875,-2.875 -0.22034,-1.20308 -0.41682,-2.48103 -0.96875,-3.65625 -0.27597,-0.58761 -0.66614,-1.18269 -1.28125,-1.625 -0.61511,-0.44231 -1.47683,-0.64921 -2.28125,-0.5625 -1.24034,0.13369 -2.06708,0.96248 -2.65625,1.78125 -0.58917,0.81877 -1.01922,1.7337 -1.34375,2.625 -0.64906,1.7826 -0.9375,3.46875 -0.9375,3.46875 l 2.96875,0.53125 c 0,0 0.27528,-1.49331 0.8125,-2.96875 0.26861,-0.73772 0.611,-1.45251 0.9375,-1.90625 0.3265,-0.45374 0.54735,-0.52962 0.5625,-0.53125 0.19002,-0.0205 0.14597,-0.0299 0.1875,0 0.0415,0.0299 0.17344,0.17265 0.3125,0.46875 0.27812,0.5922 0.49831,1.73388 0.71875,2.9375 0.22044,1.20362 0.44183,2.46697 1,3.625 0.27908,0.57902 0.67173,1.1755 1.3125,1.59375 0.64077,0.41825 1.49124,0.54345 2.28125,0.40625 1.41728,-0.24614 2.44977,-1.14137 3.3125,-2.15625 0.86273,-1.01488 1.57083,-2.22164 2.15625,-3.375 0.29271,-0.57668 0.55059,-1.1575 0.78125,-1.6875 1.47418,1.77113 3.49896,2.95742 5.875,3.3125 3.37887,0.50495 7.35776,-0.47694 11.8125,-2.875 0.61458,-0.34037 0.92174,-1.15016 0.6875,-1.8125 -0.32136,-0.91667 -0.65891,-1.81349 -1,-2.71875 2.4161,-1.02907 4.79939,-2.33052 7.1875,-5.15625 0.38571,-0.4508 0.46495,-1.13972 0.19165,-1.66631 -0.2733,-0.5266 -0.88225,-0.85836 -1.4729,-0.80244 -0.38506,0.0392 -0.75201,0.2341 -1,0.53125 -2.03001,2.40202 -3.80277,3.39723 -5.96875,4.3125 -0.84125,-2.12101 -1.72955,-4.21941 -2.59375,-6.3125 1.37794,-0.54416 2.68595,-1.32139 3.8125,-2.09375 1.57204,-1.07779 2.68279,-2.03096 3.21875,-2.59375 0.43124,-0.42722 0.56127,-1.1294 0.3116,-1.68271 -0.24966,-0.55332 -0.86218,-0.92044 -1.46785,-0.87979 z m -10.21875,4.5 c 1.91835,4.77523 3.92437,9.4721 5.65625,14.21875 -3.50824,1.67646 -6.52645,2.39012 -8.71875,2.0625 -2.45909,-0.36749 -4.07439,-1.63708 -5.09375,-4.03125 -1.10532,-2.59606 -0.0942,-5.56146 2,-8.09375 1.79454,-2.16997 4.26411,-3.60015 6.15625,-4.15625 z m -4.875,69.875 c 0.10552,8.3e-4 0.20743,-0.002 0.3125,0 10.07615,6.88809 22.40894,11.46087 35.46875,13.25 0.0899,12.85562 -0.68755,22.57133 -8.8125,34.46875 -6.81062,2.19197 -21.43281,4.31438 -36.71875,4.3125 -5.87373,-7.6e-4 -11.83228,-0.31398 -17.5,-1 -0.007,-0.0592 -0.0191,-0.12509 -0.0312,-0.1875 0.10182,-2.47401 -0.16618,-4.98901 0.5,-7.40625 0.5549,-2.52979 1.26949,-5.00609 1.84375,-7.53125 0.34647,-1.44381 0.85466,-2.84154 1.3125,-4.25 0.0827,-0.82589 0.33299,-2.18962 -0.65625,-2.53125 l -0.21875,0 c -1.21598,0.36085 -1.83033,1.55269 -2.625,2.4375 -1.33401,1.39757 -2.49795,2.94315 -3.59375,4.53125 -2.48146,3.41156 -4.54292,7.19876 -5.5625,11.3125 -0.12171,0.67739 -0.25244,1.36706 -0.3125,2.0625 -2.18548,-0.46989 -4.28358,-0.98305 -6.25,-1.59375 0.0165,-1.81556 -0.0266,-3.63279 0.1875,-5.4375 0.37383,-2.03598 1.02958,-4.02506 1.53125,-6.03125 0.55742,-1.92415 1.30941,-3.78066 2.15625,-5.59375 0.47543,-0.74988 0.78981,-1.70202 0.46875,-2.5625 -0.41056,-0.50626 -1.70884,-0.52302 -2.28125,-0.21875 -1.75268,0.93166 -2.31995,1.70393 -3.46875,3.34375 -1.11092,1.40859 -2.3948,2.71343 -3.1875,4.34375 -1.15892,2.08279 -2.27528,4.19914 -3.375,6.3125 -0.15703,0.35365 -0.31801,0.70545 -0.46875,1.0625 -1.25955,-3.9062 -0.83801,-8.01378 1.09375,-12.40625 2.31952,-5.27418 6.79082,-10.74009 12.5,-15.5 9.99107,-8.32984 23.75098,-14.42494 35.375,-15.125 0.78208,-0.0471 1.55146,-0.0685 2.3125,-0.0625 z m 94.03125,0.8125 c 3.44763,0.72013 6.36662,2.01926 8.875,3.75 4.59513,3.17057 7.87197,7.86792 10.03125,13.3125 4.07085,10.26457 3.79266,23.01594 1.4375,30.9375 -1.23481,0.28663 -2.60334,0.56267 -4.03125,0.84375 -0.3627,-1.29542 -0.76364,-3.2253 -1.0625,-4.4375 -0.52988,-2.1492 -1.24105,-4.22317 -1.875,-6.34375 -0.86859,-2.28703 -1.86096,-4.74244 -3.71875,-5.4375 -0.90227,-0.33757 -1.60832,0.81881 -1.3125,1.84375 0.62967,2.18171 0.9239,4.41414 1.21875,6.65625 0.45323,3.44646 -0.0912,6.09039 -1.03125,9.03125 -8.52449,1.2262 -18.61392,1.98769 -28.25,1.40625 -0.0146,-0.0962 -0.03,-0.19695 -0.0312,-0.28125 -0.54851,-2.0518 -0.9703,-4.11268 -1.25,-6.25 -0.38083,-2.91014 -0.29393,-5.83228 -0.25,-8.75 -0.0939,-4.4209 -2.48496,-3.03974 -3.40625,0 -0.49885,2.00505 -1.03043,4.01726 -1.40625,6.0625 -0.5156,2.48394 -1.08185,5.78971 -1.46875,8.4375 -3.33651,-0.50554 -6.54237,-1.21888 -9.5,-2.1875 -4.92209,-4.7368 -7.07451,-10.89485 -7.53125,-17.96875 -0.35816,-5.54697 0.39923,-11.55018 1.65625,-17.40625 14.84425,-0.46907 29.89352,-4.61192 42.90625,-13.21875 z"
       id="path4390"
       inkscape:connector-curvature="0"
       sodipodi:nodetypes="scccccccsccccsscsssscssscscssccsccccsccccscscccsscccscccsscccccssssscssscsscsssscssscccsccccccccssscccssccscccscscccccccccccscsssccccsccccsscccccssssccsccsscccscscsscsssssscssscsscccccsscssscscsccssssccscsssccccccsccscsssccccscsssscssscscccccccccccscsscsccsssscssssccssscccsccscsccscssccsssssssccssccssssssscsccccsccccscscccssssscccsscccccccccccccccsccccsssscssccscssscccscccccscccccsccc" />
  </g>
  <g
     inkscape:groupmode="layer"
     id="layer6"
     inkscape:label="Head Color"
     style="display:inline"
     sodipodi:insensitive="true"
     transform="translate(-421.0625,-129.50538)">
    <path
       style="color:#000000;fill:#999999;fill-opacity:1;stroke:none;stroke-width:6;marker:none;visibility:visible;display:inline;overflow:visible;enable-background:accumulate"
       d="m 607.52706,364.07351 c 7.55263,-27.51132 5.26227,-33.96574 -14.3612,-7.68155 0.89692,-12.08522 1.01764,-24.66991 -4.78674,-26.96915 -9.42438,-3.7332 -25.17339,22.7456 -43.59271,18.50024 13.31173,-7.63795 24.15742,-27.59258 19.59719,-35.0811 -2.76677,-4.5434 -21.47837,-4.34538 -33.15606,2.4473 11.36011,-7.60257 28.16098,-23.39118 22.83487,-31.50861 -4.30336,-6.55867 -23.83558,-0.0134 -32.79231,1.14196 12.66277,-6.20831 25.04349,-12.69687 34.68241,-21.75477 -8.93904,-5.55276 -32.48797,-9.55229 -46.05947,-7.91303 17.26288,-36.42983 120.70212,-4.99701 132.69486,13.13083 34.24365,-25.11519 82.93505,-37.92279 126.21183,-21.69895 30.05378,-28.87545 94.13277,-50.1297 128.77315,-17.97961 -11.51646,1.36722 -28.08542,4.66868 -30.00371,15.89042 -0.97257,5.68943 18.20681,8.44816 24.85256,14.85855 -10.16464,0.2467 -17.66791,3.90592 -23.1865,12.99712 9.24355,0.44618 13.10758,9.94407 17.0701,13.50355 -17.8327,-6.37896 -22.09126,4.61098 -22.8969,6.52956 -3.41597,8.13494 3.85373,15.17209 10.31578,24.37623 -10.82823,-4.75079 -19.06207,-6.30449 -23.1879,-4.51 -4.49403,1.95464 -6.4464,9.97934 -6.67176,17.47059 -3.60492,-4.85409 -9.84174,-11.84911 -14.89029,-15.16314 3.03132,10.31021 5.90811,22.03481 1.29679,34.47184 -6.08989,-18.05193 -13.41019,-26.23768 -19.05201,-26.58758 7.91214,42.97679 -36.03012,107.22211 -77.39161,114.90989 -37.97104,7.0576 -112.75385,-32.80835 -110.79423,-98.39057 -4.41227,1.83697 -10.36114,24.16715 -15.50614,25.00998 z"
       id="path4040"
       inkscape:connector-curvature="0"
       sodipodi:nodetypes="ccscscsccccccscccscsccccscc" />
    <path
       id="path4060"
       style="color:#000000;fill:#4e9a06;fill-opacity:1;stroke:none;stroke-width:3;marker:none;visibility:visible;display:inline;overflow:visible;enable-background:accumulate"
       d="m 703.94986,367.45753 c -28.21609,3.87783 -55.87573,5.36778 -76.97727,-3.74518 -4.31419,-8.09722 -5.2183,-21.70572 -3.73041,-24.7884 69.23428,-34.96801 135.29999,-28.73343 188.69865,-15.58471 1.42913,7.17029 3.39812,13.54456 -1.36271,23.294 -14.52365,11.06708 -49.05441,17.9249 -75.40655,17.57152 z"
       inkscape:connector-curvature="0"
       sodipodi:nodetypes="ccccccc" />
    <path
       style="color:#000000;fill:#cbcbcb;fill-opacity:1;stroke:none;stroke-width:3;marker:none;visibility:visible;display:inline;overflow:visible;enable-background:accumulate"
       d="m 803.39002,263.24257 c 4.84807,11.13834 5.5896,24.32365 7.66839,36.29772 -3.31522,-17.29243 -17.68843,-31.98572 -20.39927,-40.35434 10.47546,-12.73694 24.64414,-14.17102 36.63113,-14.8157 -4.67885,7.73479 -18.64261,13.51127 -23.90025,18.87232 z"
       id="path4044"
       inkscape:connector-curvature="0" />
    <path
       style="color:#000000;fill:#cbcbcb;fill-opacity:1;stroke:none;stroke-width:3;marker:none;visibility:visible;display:inline;overflow:visible;enable-background:accumulate"
       d="m 593.97374,273.26084 c 12.99407,1.19887 26.4195,3.85759 34.37684,8.47354 -2.48523,13.48992 -9.65637,29.49428 -16.04657,38.70296 2.67009,-9.40815 8.42736,-17.53086 8.12479,-27.69746 -3.98679,-2.07482 -7.76648,-4.5775 -9.79759,-10.78548 -1.86504,-5.70045 -10.09097,-7.07849 -16.65747,-8.69356 z"
       id="path4042"
       inkscape:connector-curvature="0" />
    <path
       style="color:#000000;fill:none;stroke:none;stroke-width:3;marker:none;visibility:visible;display:inline;overflow:visible;enable-background:accumulate"
       d="m 711.59556,409.25142 c -0.52409,1.55901 -0.21945,3.39244 1.50511,3.7341 6.65282,1.31803 27.09279,-4.57451 27.52217,-4.80722 1.50015,-0.81289 1.35188,-3.41426 1.78557,-4.74093"
       id="path4030"
       inkscape:connector-curvature="0"
       sodipodi:nodetypes="cscc" />
    <path
       id="path3871"
       style="color:#000000;fill:none;stroke:none;stroke-width:3;marker:none;visibility:visible;display:inline;overflow:visible;enable-background:accumulate"
       d="m 702.79495,393.91686 c 0.54761,3.51813 -1.45114,6.94065 -1.90562,8.36761 10.40276,-0.43389 44.65262,-2.95985 53.83103,-20.25997 5.67067,9.87819 4.52573,26.96691 -4.956,33.1627"
       inkscape:connector-curvature="0"
       sodipodi:nodetypes="cccc" />
    <path
       style="color:#000000;fill:#464646;fill-opacity:1;stroke:none;stroke-width:3;marker:none;visibility:visible;display:inline;overflow:visible;enable-background:accumulate"
       d="m 708.61537,384.68943 c -3.15434,-10.75998 -6.65465,-48.27245 10.1916,-50.41428 15.88508,-2.01962 17.8545,40.12497 17.99807,47.29957 -1.25476,3.47602 -22.41999,6.90664 -28.18967,3.11471 z"
       id="path4034"
       inkscape:connector-curvature="0"
       sodipodi:nodetypes="cscc" />
    <path
       style="color:#000000;fill:#000000;fill-opacity:1;stroke:none;stroke-width:3;marker:none;visibility:visible;display:inline;overflow:visible;enable-background:accumulate"
       d="m 694.79967,347.89668 c 0.0915,7.89872 -13.65754,12.29872 -17.65067,1.15341 -0.91093,-9.13209 17.05387,-9.79959 17.65067,-1.15341 z"
       id="path4038"
       inkscape:connector-curvature="0"
       sodipodi:nodetypes="ccc" />
    <path
       style="color:#000000;fill:#000000;fill-opacity:1;stroke:none;stroke-width:3;marker:none;visibility:visible;display:inline;overflow:visible;enable-background:accumulate"
       d="m 756.81805,341.10735 c 0.65043,12.03731 -16.5184,9.33824 -17.09835,1.17183 -0.68994,-9.71505 16.41533,-12.5253 17.09835,-1.17183 z"
       id="path4036"
       inkscape:connector-curvature="0"
       sodipodi:nodetypes="csc" />
    <path
       sodipodi:type="arc"
       style="fill:#ffffff;fill-opacity:1;fill-rule:nonzero;stroke:none;display:inline"
       id="path4089"
       sodipodi:cx="680.8327"
       sodipodi:cy="347.2533"
       sodipodi:rx="2.9929843"
       sodipodi:ry="2.5297844"
       d="m 683.82569,347.2533 c 0,1.39716 -1.34001,2.52978 -2.99299,2.52978 -1.65298,0 -2.99298,-1.13262 -2.99298,-2.52978 0,-1.39717 1.34,-2.52979 2.99298,-2.52979 1.65298,0 2.99299,1.13262 2.99299,2.52979 z"
       transform="matrix(0.55952379,0,0,0.83098592,299.42741,59.26079)" />
    <path
       sodipodi:type="arc"
       style="fill:#ffffff;fill-opacity:1;fill-rule:nonzero;stroke:none;display:inline"
       id="path4089-6"
       sodipodi:cx="680.8327"
       sodipodi:cy="347.2533"
       sodipodi:rx="2.9929843"
       sodipodi:ry="2.5297844"
       d="m 683.82569,347.2533 c 0,1.39716 -1.34001,2.52978 -2.99299,2.52978 -1.65298,0 -2.99298,-1.13262 -2.99298,-2.52978 0,-1.39717 1.34,-2.52979 2.99298,-2.52979 1.65298,0 2.99299,1.13262 2.99299,2.52979 z"
       transform="matrix(0.55952379,0,0,0.83098592,362.3157,51.742682)" />
  </g>
  <g
     inkscape:groupmode="layer"
     id="layer4"
     inkscape:label="Head Shade"
     style="display:none"
     sodipodi:insensitive="true"
     transform="translate(-421.0625,-129.50538)">
    <path
       style="color:#000000;fill:#7b7b7a;fill-opacity:1;fill-rule:nonzero;stroke:none;stroke-width:2;marker:none;visibility:visible;display:inline;overflow:visible;enable-background:accumulate"
       d="m 851.40625,214.875 c -32.88242,0.27742 -63.19791,18.35288 -84.53125,33.5625 9.12987,26.02645 15.18882,56.81861 10.53125,66.9375 7.05073,1.69553 25.42545,7.85683 33.3125,8.15625 0,0 0.97649,-3.62069 3.3125,-1.5 6.66823,7.20178 12.27585,18.54004 14.875,21.1875 6.14574,-8.50921 -0.22327,-19.97957 0.625,-30.53125 4.2056,0.58232 4.56598,12.56472 10.625,13.34375 1.47187,0.18924 4.82262,-10.27781 6.59375,-12.03125 5.44575,-5.39136 30.2774,0.8895 22.9375,-1.3125 -7.48758,-2.24631 -8.29343,-19.77891 -4.28125,-24.9375 3.7101,-4.77019 17.38346,-0.34642 19.34375,-3.875 3.32021,-5.97645 -21.20452,-9.25519 -15.65625,-13.25 1.22063,-0.87886 21.89614,-12.00874 21.4375,-12.9375 -2.96134,-5.99678 -20.39704,-4.24902 -22.71875,-11.5625 -4.44583,-14.00457 30.22371,-16.44908 29.40625,-18.65625 C 881.82263,218.3044 866.3528,214.7489 851.40625,214.875 z m -24.8125,30.375 -6,6.03125 -7.40625,5.28125 -7.78125,4.96875 -1.78125,1.0625 4.25,12.375 3.1875,21.90625 -4.96875,-10.96875 L 797.25,271.0625 792.65625,264 791.25,260.125 l 7.78125,-9.21875 17.6875,-5.28125 9.875,-0.375 z"
       id="path4554"
       inkscape:connector-curvature="0" />
    <path
       style="color:#000000;fill:#3d8100;fill-opacity:1;fill-rule:nonzero;stroke:none;stroke-width:2;marker:none;visibility:visible;display:inline;overflow:visible;enable-background:accumulate"
       d="m 774.17711,316.24289 c 10.24225,12.34082 -1.22077,33.89864 -6.25187,44.34575 13.45754,-2.83725 28.76357,-5.70582 41.26649,-10.8545 4.62196,-7.35071 3.31668,-17.1963 4.43245,-25.32718 -15.19875,-3.4292 -25.92434,-7.66719 -39.44707,-8.16407 z"
       id="path4556"
       inkscape:connector-curvature="0"
       sodipodi:nodetypes="ccccc" />
    <path
       style="color:#000000;fill:#7b7b7a;fill-opacity:1;fill-rule:nonzero;stroke:none;stroke-width:2;marker:none;visibility:visible;display:inline;overflow:visible;enable-background:accumulate"
       d="m 773.19323,360.60111 c 22.6772,22.00073 -7.4881,43.54973 -16.22887,64.58884 28.22869,-14.27168 43.89448,-49.5462 52.25628,-76.504 -12.26025,5.80754 -22.92809,9.51553 -36.02741,11.91516 z"
       id="path4558"
       inkscape:connector-curvature="0"
       sodipodi:nodetypes="cccc" />
  </g>
  <g
     inkscape:groupmode="layer"
     id="layer7"
     inkscape:label="Head Ink"
     style="display:inline"
     sodipodi:insensitive="true"
     transform="translate(-421.0625,-129.50538)">
    <path
       style="font-size:medium;font-style:normal;font-variant:normal;font-weight:normal;font-stretch:normal;text-indent:0;text-align:start;text-decoration:none;line-height:normal;letter-spacing:normal;word-spacing:normal;text-transform:none;direction:ltr;block-progression:tb;writing-mode:lr-tb;text-anchor:start;baseline-shift:baseline;color:#000000;fill:#000000;fill-opacity:1;fill-rule:nonzero;stroke:none;stroke-width:6;marker:none;visibility:visible;display:inline;overflow:visible;enable-background:accumulate;font-family:Sans;-inkscape-font-specification:Sans"
       d="m 852.9375,209.625 c -1.15292,-0.007 -2.3103,-0.004 -3.46875,0.0312 -6.17839,0.18596 -12.41596,0.96194 -18.59375,2.21875 -24.01881,4.88639 -47.20483,17.05957 -62.75,31.4375 -43.08786,-15.37134 -90.67797,-3.10371 -125.03125,21.15625 -4.49158,-4.91102 -12.37443,-9.29617 -22.6875,-13.65625 -11.87889,-5.02207 -26.64339,-9.57889 -41.625,-12.40625 -14.98161,-2.82736 -30.15832,-3.94299 -43,-1.96875 -12.84168,1.97424 -23.71007,7.22524 -28.59375,17.53125 -0.4491,0.96171 -0.33619,2.16239 0.28433,3.02352 0.62051,0.86112 1.72377,1.34818 2.77817,1.22648 6.2923,-0.76003 15.4249,-0.20147 23.90625,1.25 6.19574,1.06032 12.07389,2.68179 16.28125,4.375 -8.71367,7.21102 -19.35976,12.91316 -30.5,18.375 -1.29795,0.60141 -2.02446,2.22084 -1.61065,3.59019 0.41381,1.36934 1.91561,2.31538 3.3294,2.09731 4.91684,-0.63424 11.90718,-2.54608 18.1875,-3.46875 3.14016,-0.46133 6.06213,-0.67727 8.1875,-0.4375 2.12537,0.23977 3.152,0.85949 3.53125,1.4375 0.68996,1.05156 0.78037,2.37736 -0.0312,4.59375 -0.81167,2.21639 -2.59682,4.98813 -4.9375,7.78125 -4.64317,5.54069 -11.44563,11.2231 -16.875,14.875 -0.0446,0.03 -0.1118,0.0641 -0.15625,0.0937 -1.33354,0.83449 -1.78761,2.80708 -0.95312,4.14062 0.83448,1.33354 2.80708,1.78762 4.14062,0.95313 0.0505,-0.0294 0.10536,-0.0646 0.15625,-0.0937 5.23519,-2.99755 12.39915,-4.66238 18.40625,-4.96875 3.03275,-0.15467 5.76624,0.0371 7.71875,0.46875 1.95251,0.43169 2.87588,1.2804 2.78125,1.125 0.55747,0.91544 0.84541,2.82113 0.34375,5.4375 -0.50166,2.61637 -1.71712,5.80809 -3.5,9.03125 -3.56576,6.44631 -9.39226,13.00475 -15.375,16.4375 -1.04184,0.59797 -1.65362,1.86709 -1.47247,3.05459 0.18114,1.18751 1.14348,2.21651 2.31622,2.47666 10.72218,2.47129 20.11349,-3.87659 27.65625,-9.59375 3.77138,-2.85858 7.17203,-5.63193 9.96875,-7.34375 2.79672,-1.71182 4.57006,-2.06825 5.53125,-1.6875 0.57661,0.22841 1.10675,0.72636 1.6875,1.96875 0.58075,1.24239 1.07507,3.12867 1.34375,5.40625 0.53736,4.55516 0.31851,10.58663 -0.125,16.5625 -0.0881,1.27554 0.73651,2.56138 1.93254,3.01336 1.19603,0.45199 2.66496,0.0329 3.44246,-0.98211 4.85392,-6.50147 8.62667,-10.92865 11.21875,-13.34375 0.79449,-0.74025 1.17454,-0.93183 1.6875,-1.28125 0.0282,0.90808 -0.006,2.02442 -0.21875,3.625 -0.50676,3.80776 -1.75502,9.28213 -3.625,16.09375 -0.52489,1.9274 1.40315,4.06967 3.375,3.75 1.6404,-0.26872 2.74891,-1.17505 3.65625,-2.125 0.90734,-0.94995 1.66352,-2.04865 2.40625,-3.28125 1.48545,-2.4652 2.86925,-5.45985 4.21875,-8.4375 0.75951,-1.67585 1.43899,-3.06067 2.15625,-4.59375 2.4405,29.46284 19.7573,53.32353 41.21875,69.3125 23.76617,17.70601 52.38759,26.27891 72.71875,22.5 21.9692,-4.08337 43.64424,-22.64192 59.125,-45.5 12.19942,-18.01302 20.49678,-38.76059 21.4375,-57.875 0.0127,-0.13699 0.0208,-0.27031 0.0312,-0.40625 0.0123,-0.28065 0.0222,-0.56383 0.0312,-0.84375 0.0496,-1.10116 0.0705,-2.17508 0,-3.21875 -0.0208,-1.68667 -0.0729,-3.34832 -0.21875,-5 1.06291,0.85334 2.17172,1.80971 3.40625,3.4375 3.0102,3.96912 6.27753,10.28262 9.25,19.09375 0.39125,1.16705 1.56429,2.02583 2.795,2.04622 1.23072,0.0204 2.43156,-0.79907 2.86125,-1.95252 3.55449,-9.5867 2.87349,-18.72056 1.125,-26.96875 2.74321,2.8191 5.41273,5.93233 7.25,8.40625 0.7397,0.99384 2.13518,1.44328 3.31585,1.06792 1.18067,-0.37536 2.06042,-1.54813 2.0904,-2.78667 0.10582,-3.51754 0.62301,-7.1601 1.5625,-9.9375 0.93949,-2.7774 2.2655,-4.43321 3.28125,-4.875 1.10317,-0.47981 3.73247,-0.6969 7.34375,0 3.61128,0.6969 8.20064,2.21991 13.46875,4.53125 1.19556,0.53648 2.73057,0.17165 3.5569,-0.84537 0.82633,-1.01703 0.86921,-2.59421 0.0993,-3.65463 -3.32842,-4.74079 -6.7403,-8.77834 -8.71875,-12.3125 -1.97845,-3.53416 -2.57556,-6.07393 -1.28125,-9.15625 0.46394,-1.10484 1.35445,-3.38494 3.90625,-5.03125 2.5518,-1.64631 6.8569,-2.8237 15.1875,0.15625 1.30075,0.48474 2.90873,-0.0792 3.62184,-1.27012 0.71311,-1.19097 0.45091,-2.87466 -0.59059,-3.79238 -1.35506,-1.21723 -3.46723,-4.52692 -6.34375,-7.6875 -1.93301,-2.1239 -4.46782,-4.16829 -7.59375,-5.40625 4.60071,-5.63957 10.15568,-7.96283 18.125,-8.15625 1.18499,-0.021 2.31984,-0.81468 2.74618,-1.92052 0.42635,-1.10584 0.118,-2.4559 -0.74618,-3.26698 -4.206,-4.05704 -10.8306,-6.14419 -16.25,-8.3125 -2.7097,-1.08416 -5.1134,-2.15215 -6.5,-3.0625 -0.65505,-0.43006 -1.02055,-0.79369 -1.15625,-0.96875 0.78985,-4.15251 4.25065,-7.0427 9.53125,-9.21875 5.35287,-2.20583 12.16773,-3.36111 17.8125,-4.03125 1.1336,-0.1312 2.15516,-0.96705 2.50819,-2.05224 0.35303,-1.08519 0.0188,-2.3621 -0.82064,-3.13516 -12.82348,-11.90161 -29.39366,-16.77111 -46.6875,-16.875 z m -0.53125,6 c 13.97222,0.008 27.14228,3.39755 37.96875,11.1875 -4.1988,0.7417 -8.49897,1.71336 -12.53125,3.375 -6.2903,2.59214 -12.02611,6.92947 -13.21875,13.90625 -0.26294,1.53815 0.22195,3.14256 1,4.25 0.77805,1.10744 1.77191,1.89005 2.84375,2.59375 2.14368,1.40739 4.76821,2.47575 7.5625,3.59375 2.58271,1.03335 5.2865,2.11681 7.71875,3.21875 -6.95556,1.91941 -12.80549,6.09187 -17.09375,13.15625 -0.52692,0.88549 -0.55206,2.04817 -0.0639,2.95561 0.48814,0.90745 1.47215,1.52727 2.50142,1.57564 3.61795,0.17464 6.08049,2.03522 8.4375,4.625 0.33672,0.36997 0.6194,0.79691 0.9375,1.1875 -4.93765,-0.38382 -8.8709,0.56693 -11.625,2.34375 -4.23707,2.73357 -5.8458,6.90501 -6.1875,7.71875 -2.12166,5.05262 -0.82417,10.11832 1.59375,14.4375 0.9345,1.66933 2.11203,3.2752 3.28125,4.90625 -1.8556,-0.56695 -3.69398,-1.11913 -5.34375,-1.4375 -4.24416,-0.81903 -7.82109,-0.93968 -10.84375,0.375 -3.47828,1.51285 -5.37721,4.87232 -6.59375,8.46875 -0.48125,1.42271 -0.77414,2.95631 -1.0625,4.5 -3.3955,-3.92289 -7.19555,-7.86786 -11.0625,-10.40625 -1.01743,-0.67017 -2.45158,-0.63196 -3.43188,0.0914 -0.9803,0.72339 -1.43972,2.0825 -1.09937,3.25231 2.21512,7.53413 4.18486,15.45105 3.375,23.6875 -2.09411,-4.69893 -4.25055,-8.84648 -6.5,-11.8125 -3.58287,-4.72421 -7.37902,-7.55304 -11.5625,-7.8125 -1.09107,-0.0609 -2.19388,0.52807 -2.75,1.46875 -22.47587,-5.33798 -47.12305,-9.37281 -73.28125,-9.59375 -34.80439,-0.29397 -72.26277,6.13514 -110.6875,25.09375 -0.82044,-0.53585 -1.91041,-0.63274 -2.8125,-0.25 -1.43661,0.59811 -2.21752,1.53626 -2.96875,2.53125 -0.75123,0.99499 -1.42219,2.14434 -2.09375,3.40625 -0.878,1.64983 -1.75501,3.61809 -2.625,5.53125 0.26326,-2.04999 0.41805,-3.81387 0.28125,-5.375 -0.14235,-1.62449 -0.45705,-3.2839 -2,-4.59375 -1.54295,-1.30985 -3.83494,-1.16292 -5.34375,-0.5 -1.50881,0.66292 -2.84603,1.70255 -4.40625,3.15625 -1.75005,1.63056 -3.81382,3.95946 -6.09375,6.71875 0.0374,-2.88572 -0.0718,-5.71139 -0.375,-8.28125 -0.31457,-2.66665 -0.84268,-5.10843 -1.84375,-7.25 -1.00107,-2.14157 -2.61192,-4.07879 -4.9375,-5 -3.751,-1.48585 -7.46132,0.0859 -10.84375,2.15625 -3.38243,2.07032 -6.82241,4.9237 -10.46875,7.6875 -4.50836,3.41719 -9.1853,6.34093 -13.90625,7.8125 3.84381,-3.72561 7.19455,-8.04965 9.65625,-12.5 2.02248,-3.65631 3.49092,-7.34254 4.15625,-10.8125 0.66533,-3.46996 0.59765,-6.85868 -1.125,-9.6875 -1.47802,-2.4271 -3.926,-3.24701 -6.625,-3.84375 -2.699,-0.59674 -5.86179,-0.80099 -9.3125,-0.625 -1.6754,0.0854 -3.4258,0.26939 -5.1875,0.53125 1.91633,-1.83999 3.74037,-3.73691 5.375,-5.6875 2.61379,-3.11903 4.77322,-6.29792 5.96875,-9.5625 1.19553,-3.26458 1.37934,-6.96159 -0.59375,-9.96875 -1.77243,-2.70132 -4.81661,-3.72099 -7.84375,-4.0625 -2.7071,-0.3054 -5.66456,-0.0894 -8.6875,0.3125 6.46081,-3.79291 12.60329,-7.98922 17.96875,-13.03125 1.32286,-1.25378 1.07492,-3.74973 -0.46875,-4.71875 -5.19831,-3.22909 -13.45425,-5.53583 -22.375,-7.0625 -6.5594,-1.12256 -13.38414,-1.74583 -19.4375,-1.65625 4.50619,-5.05837 11.73569,-8.14304 20.96875,-9.5625 11.78313,-1.8115 26.43359,-0.77435 40.96875,1.96875 14.53516,2.7431 28.97786,7.16839 40.40625,12 11.42839,4.83161 19.90789,10.50915 22.03125,13.71875 0.88793,1.35853 2.97072,1.7386 4.28125,0.78125 33.54226,-24.60077 81.27672,-37.09454 123.375,-21.3125 1.05272,0.38921 2.31777,0.12355 3.125,-0.65625 14.52394,-13.95449 37.68561,-26.31252 61.1875,-31.09375 5.87547,-1.19531 11.76095,-1.91348 17.53125,-2.09375 0.93808,-0.0293 1.88102,-0.0318 2.8125,-0.0312 z m -25.1875,27.25 c -12.04281,0.64768 -26.85688,2.13698 -37.71875,15.34375 -0.32987,0.38906 -0.44016,0.95281 -0.28125,1.4375 1.51562,4.67885 5.84459,10.33054 10.15625,17.15625 4.30655,6.81761 8.61729,14.65008 10.21875,22.96875 0.002,0.01 -0.002,0.0215 0,0.0312 0.20279,0.70669 0.98546,1.19327 1.70893,1.06243 0.72347,-0.13084 1.28614,-0.86073 1.22857,-1.59368 -0.002,-0.01 0.002,-0.0215 0,-0.0312 -0.002,-0.01 0.002,-0.0213 0,-0.0312 -1.98489,-11.46248 -2.82859,-24.22608 -7.40625,-35.4375 2.48543,-2.29529 6.78352,-4.9049 11.25,-7.8125 4.77576,-3.10894 9.59163,-6.52116 12.1875,-10.8125 0.56391,-0.92243 -0.26359,-2.32725 -1.34375,-2.28125 z m -3.1875,3.28125 c -2.36276,2.5377 -5.76357,4.9913 -9.28125,7.28125 -4.69024,3.05326 -9.53244,5.7878 -12.4375,8.75 -0.42084,0.42285 -0.55032,1.10912 -0.3125,1.65625 2.79847,6.42943 4.1907,13.67363 5.3125,21.03125 -1.70074,-3.3888 -3.52687,-6.68104 -5.40625,-9.65625 -4.15818,-6.58273 -8.01606,-12.07174 -9.4375,-15.78125 9.08612,-10.49329 20.74462,-12.52012 31.5625,-13.28125 z M 593.8125,271.75 c -0.71841,0.0487 -1.35024,0.68352 -1.39562,1.40215 -0.0454,0.71863 0.50155,1.42786 1.20812,1.5666 3.32823,0.8186 6.95625,1.56863 9.875,2.75 2.91875,1.18137 4.97779,2.67276 5.71875,4.9375 2.00459,6.12692 5.83066,9.03617 9.625,11.125 -0.026,9.23373 -5.28076,17.02876 -7.96875,26.5 -0.15663,0.66325 0.2046,1.41197 0.82123,1.70215 0.61663,0.29018 1.42379,0.0913 1.83502,-0.45215 6.55463,-9.44563 13.74117,-25.49359 16.28125,-39.28125 0.10889,-0.60072 -0.19175,-1.25428 -0.71875,-1.5625 -8.32771,-4.8308 -21.71684,-7.40741 -34.75,-8.625 -0.0733,-0.007 -0.14552,-0.0245 -0.21875,-0.0312 -0.0515,-0.0132 -0.10366,-0.0236 -0.15625,-0.0312 -0.052,-0.003 -0.10421,-0.003 -0.15625,0 z m 14.5625,5.125 c 7.14586,1.37776 13.59669,3.25346 18.21875,5.71875 -1.123,5.57863 -3.03674,11.51119 -5.34375,17.25 0.48261,-2.28286 0.76213,-4.64862 0.6875,-7.15625 -0.0186,-0.52988 -0.34111,-1.03853 -0.8125,-1.28125 -3.89301,-2.02601 -7.16536,-4.10774 -9.0625,-9.90625 -0.65813,-2.01156 -2.05846,-3.43408 -3.6875,-4.625 z m 127,37.53125 c 26.05139,0.2255 50.60894,4.29382 73.0625,9.65625 1.14219,6.99484 0.8575,14.67275 -0.625,22.625 -7.10813,4.73303 -18.2904,8.77994 -30.8125,11.5625 -13.0878,2.90826 -27.57094,4.502 -40.25,4.46875 -0.40617,-2.81278 -0.92819,-5.72114 -1.5625,-8.5625 -1.26861,-5.68273 -3.0366,-11.11532 -5.625,-15.15625 -2.5884,-4.04093 -6.31487,-6.80647 -10.9375,-6.21875 -4.76147,0.60537 -8.18026,3.82606 -10.3125,8.09375 -2.13224,4.26769 -3.16668,9.63813 -3.59375,15.25 -0.24751,3.25238 -0.26943,6.56044 -0.15625,9.78125 -27.16657,3.66438 -55.45437,5.12542 -75.65625,-3.03125 -2.07654,-7.42828 -3.11754,-15.3249 -2.875,-23.65625 37.96787,-18.73096 74.93897,-25.11031 109.34375,-24.8125 z m 14.0625,18.40625 c -0.60298,0.0224 -1.19085,0.10196 -1.78125,0.21875 -2.36161,0.46717 -4.61825,1.64867 -6.25,3.4375 -1.63175,1.78883 -2.59691,4.29511 -2.125,7.03125 0.84923,4.92382 5.71695,7.7602 10.28125,7.71875 2.28215,-0.0207 4.59076,-0.80707 6.28125,-2.53125 1.69049,-1.72418 2.64837,-4.33215 2.46875,-7.65625 -0.19343,-3.2153 -1.65275,-5.64088 -3.71875,-6.9375 -1.033,-0.64831 -2.16091,-1.02488 -3.34375,-1.1875 -0.59142,-0.0813 -1.20952,-0.11613 -1.8125,-0.0937 z m -29.8125,2.875 c 3.01385,-0.13938 5.29402,1.63997 7.40625,4.9375 2.25304,3.51737 3.99143,8.68971 5.21875,14.1875 1.95553,8.7598 2.65764,17.96506 2.90625,23.21875 -0.15681,0.003 -0.31227,-0.0111 -0.46875,0 -0.30249,0.0239 -0.60444,0.063 -0.90625,0.0937 -0.4019,0.0401 -0.79471,0.0889 -1.1875,0.1875 -0.41177,0.10875 -0.8216,0.25237 -1.21875,0.40625 -0.47401,0.1798 -0.93223,0.37574 -1.375,0.625 -0.48189,0.27826 -0.93748,0.56171 -1.375,0.90625 -0.48315,0.36833 -0.99296,0.7472 -1.46875,1.125 -0.62747,0.51732 -1.03691,1.0532 -1.54986,1.6875 -0.31433,0.39384 -0.44631,0.82388 -0.54389,1.1875 -0.28264,0.0421 -0.55816,0.0871 -0.84375,0.125 -0.85639,0.11357 -1.72821,0.20834 -2.59375,0.28125 -0.41714,-0.56691 -0.86894,-1.14484 -1.40625,-1.75 -0.16757,-0.17959 -0.34445,-0.37086 -0.53125,-0.53125 -0.23031,-0.20248 -0.46585,-0.38829 -0.71875,-0.5625 -0.19491,-0.13439 -0.39268,-0.28123 -0.59375,-0.40625 -0.24202,-0.14793 -0.46928,-0.30243 -0.71875,-0.4375 -0.29835,-0.15857 -0.628,-0.30171 -0.9375,-0.4375 -0.35903,-0.15817 -0.71867,-0.28969 -1.09375,-0.40625 -0.30022,-0.0886 -0.59749,-0.16595 -0.90625,-0.21875 -0.29716,-0.0522 -0.60369,-0.0967 -0.90625,-0.0937 -0.18236,-10e-4 -0.34891,0.003 -0.53125,0 -0.17494,-0.004 -0.35628,-0.0292 -0.53125,-0.0312 -0.19007,-10e-4 -0.37244,-0.003 -0.5625,0 -0.3757,0.0108 -0.75662,0.0475 -1.125,0.125 -0.61518,0.13523 -1.21961,0.3187 -1.8125,0.53125 -0.0142,0.005 -0.0173,0.0259 -0.0312,0.0312 -1.17861,-5.99261 -2.16172,-15.39849 -1.5,-24.09375 0.40934,-5.37897 1.43037,-10.45171 3.28125,-14.15625 1.85088,-3.70454 4.33834,-6.00321 8,-6.46875 0.20749,-0.0264 0.42408,-0.0532 0.625,-0.0625 z m 29.90625,0.125 c 0.43632,-0.0155 0.87391,0.007 1.28125,0.0625 0.81468,0.11103 1.56022,0.38757 2.1875,0.78125 1.25456,0.78736 2.16442,2.06981 2.3125,4.53125 0.1456,2.69455 -0.55076,4.34248 -1.59375,5.40625 -1.04299,1.06377 -2.54645,1.6101 -4.1875,1.625 -2.87184,0.0261 -5.89295,-1.61035 -6.96875,-4.125 -1.2019,-0.41257 -2.21875,-1.82793 -2.21875,-3.78125 0,-2.32984 1.41912,-3.9375 2.90625,-3.9375 0.66011,0 1.32942,0.32249 1.84375,0.875 0.92894,-0.60969 2.02215,-1.06309 3.125,-1.28125 0.44114,-0.0873 0.87618,-0.14076 1.3125,-0.15625 z m -63.46875,3.5625 c -2.4126,0.0224 -4.87607,0.85638 -6.6875,2.75 -1.81143,1.89362 -2.89908,4.78191 -2.78125,8.5 0.009,0.0421 0.019,0.0838 0.0312,0.125 0.39,3.00077 1.90858,5.19886 3.96875,6.28125 2.06017,1.08239 4.47544,1.12497 6.75,0.5625 2.27456,-0.56247 4.45579,-1.75199 6.125,-3.40625 1.66921,-1.65426 2.8723,-3.8479 2.84375,-6.3125 -0.009,-0.0316 -0.0198,-0.0628 -0.0312,-0.0937 -0.18164,-2.63148 -1.58819,-4.81252 -3.5,-6.25 -1.91181,-1.43748 -4.30615,-2.17863 -6.71875,-2.15625 z m 0.0312,3 c 1.74076,-0.0161 3.53281,0.55331 4.875,1.5625 1.33383,1.0029 2.21843,2.35433 2.34375,4.03125 -0.003,1.46313 -0.71514,2.88234 -1.9375,4.09375 -1.23918,1.22808 -3.01002,2.19473 -4.75,2.625 -1.73998,0.43027 -3.41248,0.32454 -4.625,-0.3125 -0.95195,-0.50014 -1.69938,-1.30982 -2.125,-2.71875 -1.29536,-0.30586 -2.40625,-1.77366 -2.40625,-3.84375 0,-2.32984 1.41912,-3.90625 2.90625,-3.90625 0.38575,0 0.77235,0.11324 1.125,0.3125 0.01,-0.0105 0.0213,-0.0208 0.0312,-0.0312 1.18507,-1.23884 2.82174,-1.79635 4.5625,-1.8125 z m 120.84375,8.4375 c -3.21111,13.69085 -9.74472,27.96085 -18.40625,40.75 -14.85271,21.93072 -35.85771,39.33309 -55.25,42.9375 -17.63988,3.27869 -45.40316,-4.54813 -68.03125,-21.40625 -15.66581,-11.67116 -28.87719,-27.45547 -35.21875,-46.5625 20.84723,7.53634 48.36793,5.91098 74.65625,2.375 0.43043,6.70426 1.46765,12.69725 2.5,16.21875 0.0975,0.32788 0.31098,0.62001 0.59375,0.8125 1.88092,1.23617 4.46298,1.67929 7.40625,1.84375 2.94327,0.16446 6.24393,-0.0181 9.40625,-0.4375 3.16232,-0.41938 6.18039,-1.08 8.5625,-1.875 1.19105,-0.3975 2.21062,-0.80975 3.0625,-1.3125 0.85188,-0.50275 1.6279,-1.03169 2,-2.0625 0.0667,-0.17924 0.0987,-0.37132 0.0937,-0.5625 -0.0484,-2.41621 -0.30295,-8.62104 -1.1875,-15.8125 12.84598,0.002 27.3086,-1.63122 40.5,-4.5625 11.36148,-2.52465 21.74999,-5.98894 29.3125,-10.34375 z m -42.625,28.9375 c -0.0945,0.002 -0.18876,0.012 -0.28125,0.0312 -0.58097,0.10861 -1.07361,0.59188 -1.19336,1.17066 -0.11975,0.57878 0.14068,1.21786 0.63086,1.54809 1.93909,1.35189 2.58324,3.29757 2.6875,5.125 0.0521,0.91372 -0.0549,1.77069 -0.21875,2.40625 -0.12292,0.47667 -0.37081,0.84931 -0.375,0.90625 -0.58087,0.53178 -0.62553,1.54413 -0.0937,2.125 0.53178,0.58087 1.54413,0.62553 2.125,0.0937 0.80638,-0.69399 1.49427,-1.47422 1.88694,-2.375 0.48422,-1.11076 1.33881,-2.70681 1.1883,-4.90486 -0.14178,-2.48526 -2.70886,-4.41641 -5.51274,-5.81389 -0.24076,-0.18656 -0.5395,-0.29719 -0.8437,-0.31245 z m -9.97174,2.05514 c -0.45894,0.072 -0.87674,0.37048 -1.09375,0.78125 -4.24135,7.9944 -14.53892,11.64241 -25.37201,14.44486 -9.72006,2.51451 -19.06399,3.25817 -24.71875,3.5625 0.19664,-0.48704 0.30559,-0.66294 0.5,-1.25 0.52876,-1.59673 0.82783,-2.5501 0.5,-4.65625 -0.1226,-0.77732 -0.94149,-1.37297 -1.71879,-1.25024 -0.7773,0.12273 -1.37282,0.94171 -1.24996,1.71899 0.21978,1.41198 0.0411,1.89919 -0.40625,3.25 -0.44733,1.35081 -0.99753,2.44858 -1.3125,3.4375 -0.2757,0.90372 0.52415,1.95884 1.46875,1.9375 5.25399,-0.21914 16.50037,-0.94972 27.6875,-3.84375 10.15835,-2.6279 18.43641,-3.99273 25.05557,-9.37661 2.25246,3.18332 2.35451,5.68317 1.96875,9.25161 -0.72575,5.97774 -2.47645,11.35742 -6.71182,14.125 -0.68111,0.42147 -0.90358,1.43646 -0.46121,2.10418 0.44237,0.66773 1.46376,0.85866 2.11746,0.39582 5.24636,-3.42821 8.01301,-9.69613 8.8125,-16.28125 0.79949,-6.58512 -0.49127,-12.30032 -3.53424,-17.60111 -0.29558,-0.5273 -0.93345,-0.83973 -1.53125,-0.75 z m -12.09076,20.10111 c -0.58496,0.0612 -1.11286,0.49897 -1.28125,1.0625 -0.3225,0.98654 -0.35994,1.95052 -0.53125,2.71875 -0.16587,0.74385 -0.35674,1.06513 -0.5,1.15625 -0.0243,0.008 -0.032,-0.01 -0.0625,0 -0.15876,0.0505 -0.41906,0.13035 -0.71875,0.21875 -0.59937,0.1768 -1.43784,0.40777 -2.46875,0.6875 -2.06182,0.55947 -4.84335,1.27512 -7.8125,1.9375 -2.96915,0.66238 -6.11813,1.29466 -8.90625,1.65625 -2.78812,0.36159 -5.25193,0.41589 -6.5625,0.15625 -0.37706,-0.0747 -0.37533,-0.0876 -0.46875,-0.375 -0.0934,-0.28741 -0.0837,-0.87829 0.0937,-1.40625 0.30438,-0.7583 -0.14646,-1.72771 -0.92249,-1.98355 -0.77603,-0.25583 -1.715,0.2554 -1.92126,1.04605 -0.34661,1.03105 -0.45281,2.14553 -0.0937,3.25 0.35901,1.10447 1.02642,3.20646 2.43726,4.07015 1.43342,0.87751 4.82755,0.95547 7.75644,0.57563 2.92889,-0.37984 6.16138,-1.01241 9.1875,-1.6875 3.02612,-0.67509 5.83816,-1.3991 7.9375,-1.96875 1.31522,-0.36732 3.38875,-0.98615 4.3125,-1.79682 1.14804,-1.00752 1.41204,-3.84406 1.65005,-4.91141 0.23801,-1.06735 0.35756,-2.06612 0.46875,-2.40625 0.32103,-0.90804 -0.4745,-2.01485 -1.4375,-2 -0.052,-0.003 -0.10421,-0.003 -0.15625,0 z"
       id="path4253"
       inkscape:connector-curvature="0"
       sodipodi:nodetypes="ccsccssscscsccscssscsccsccsccsscscssssscscsccccssscssscccccscscccscssscscssscscsccscsscscsccccsssssccscscssscsssccsccsccsccsscssssccsssscssssccsssscccscsssccccsscccccsccsccccsccccccccscccccssccscccccccccscccscsccscssssscccsccsscscscccccscccccccccccccccccccccccccccsscccccscsscsscccccccsssccscccccssscssccccccssccccsssscccsccccsccccscsscccccscscsccccscccscsccccsccsssssccsccsssscsccccc" />
  </g>
</svg>
