<?xml version="1.0" encoding="UTF-8" standalone="no"?>
<svg
   xmlns:dc="http://purl.org/dc/elements/1.1/"
   xmlns:cc="http://creativecommons.org/ns#"
   xmlns:rdf="http://www.w3.org/1999/02/22-rdf-syntax-ns#"
   xmlns:svg="http://www.w3.org/2000/svg"
   xmlns="http://www.w3.org/2000/svg"
   xmlns:sodipodi="http://sodipodi.sourceforge.net/DTD/sodipodi-0.dtd"
   xmlns:inkscape="http://www.inkscape.org/namespaces/inkscape"
   data-name="Layer 1"
   viewBox="0 0 100 125"
   x="0px"
   y="0px"
   version="1.1"
   id="svg16"
   sodipodi:docname="news.svg"
   inkscape:version="0.92.2 (5c3e80d, 2017-08-06)">
  <metadata
     id="metadata22">
    <rdf:RDF>
      <cc:Work
         rdf:about="">
        <dc:format>image/svg+xml</dc:format>
        <dc:type
           rdf:resource="http://purl.org/dc/dcmitype/StillImage" />
        <dc:title>Office_</dc:title>
      </cc:Work>
    </rdf:RDF>
  </metadata>
  <defs
     id="defs20" />
  <sodipodi:namedview
     pagecolor="#ffffff"
     bordercolor="#666666"
     borderopacity="1"
     objecttolerance="10"
     gridtolerance="10"
     guidetolerance="10"
     inkscape:pageopacity="0"
     inkscape:pageshadow="2"
     inkscape:window-width="2048"
     inkscape:window-height="1089"
     id="namedview18"
     showgrid="false"
     inkscape:zoom="1.888"
     inkscape:cx="-36.069915"
     inkscape:cy="62.5"
     inkscape:window-x="2040"
     inkscape:window-y="235"
     inkscape:window-maximized="1"
     inkscape:current-layer="svg16" />
  <title
     id="title2">Office_</title>
  <path
     d="m 99.185254,68.876034 c 0,-7.797498 -3.218937,-11.795023 -9.64519,-11.795023 H 73.085136 c -11.980954,0 -24.473218,-6.612184 -33.409546,-17.744826 a 1.2550368,1.2550368 0 0 0 -0.650759,-0.395104 8.7736373,8.7736373 0 0 0 -5.810357,-2.219556 c -9.842742,0 -18.476931,15.583374 -18.476931,33.351443 0,17.768067 8.634189,33.351442 18.476931,33.351442 a 8.7736373,8.7736373 0 0 0 5.810357,-2.18469 1.2317954,1.2317954 0 0 0 0.627518,-0.40673 L 40.32635,99.961438 A 15.525271,15.525271 0 0 0 41.348973,98.69478 C 49.30916,88.584761 60.151284,82.135266 71.063132,80.880229 l 6.310046,7.297807 a 1.2782783,1.2782783 0 0 0 0.96452,0.441587 h 12.608471 a 1.2782783,1.2782783 0 0 0 1.278279,-1.278279 v -7.018909 c 4.613423,-0.987761 6.960806,-4.822596 6.960806,-11.446401 z M 75.862486,59.67243 c 1.162071,1.162072 1.801211,4.276423 1.801211,9.203604 0,4.927182 -0.581036,7.855601 -1.719865,9.110638 h -4.648286 a 1.2666576,1.2666576 0 0 0 -0.894794,0.383483 v 0 c 1.429347,-2.219556 1.650141,-6.228701 1.650141,-9.494121 0,-3.26542 -0.209173,-7.042151 -1.533934,-9.296569 0.859932,0.0581 1.708244,0.104582 2.568177,0.104582 h 2.77735 z M 17.363824,70.131071 c 0,-17.62862 8.401774,-30.794886 15.920374,-30.794886 5.136356,0 8.947948,6.36815 10.656193,17.012722 a 1.3015197,1.3015197 0 0 0 -0.220793,0 c -4.125352,0 -7.739394,6.461116 -7.739394,13.828647 0,7.367531 3.614042,13.828646 7.739394,13.828646 a 1.452589,1.452589 0 0 0 0.220793,0 c -0.883174,5.519838 -2.324142,9.877605 -4.241559,12.782783 -0.232415,0.278898 -0.464829,0.557794 -0.685622,0.848312 l -0.836692,1.092347 a 6.7400127,6.7400127 0 0 1 -4.962044,2.149828 c -7.460496,0 -15.862271,-13.166263 -15.862271,-30.794882 z m 27.564328,0 a 92.384657,92.384657 0 0 1 -0.697243,11.725298 1.3247612,1.3247612 0 0 1 -0.522932,0.708863 c -2.928419,0 -6.344908,-5.438493 -6.344908,-12.434161 0,-6.995669 3.404868,-12.480645 6.310046,-12.480645 a 0.97613977,0.97613977 0 0 1 0.511311,0.662382 92.245209,92.245209 0 0 1 0.732105,11.77178 z m 0,20.917281 a 73.582346,73.582346 0 0 0 2.568177,-20.917281 c 0,-8.936327 -1.022623,-16.408445 -2.905177,-21.998008 a 45.936673,45.936673 0 0 0 23.880561,11.272092 c 1.45259,0.906414 2.184694,4.078869 2.184694,9.505741 0,6.484357 -1.045864,9.784639 -3.11435,9.784639 A 0.68562198,0.68562198 0 0 0 66.972642,79.009294 47.307916,47.307916 0 0 0 44.90491,91.01349 Z M 89.691133,86.109549 H 78.941975 l -4.648285,-5.40363 h 0.708864 14.665337 v 5.438492 z m 1.231795,-8.134497 H 77.628835 c 1.220174,-2.324144 1.429347,-6.019529 1.429347,-9.110639 0,-3.091109 -0.209173,-6.972427 -1.475831,-9.203603 h 11.957713 c 4.962044,0 7.088633,2.754108 7.088633,9.203603 0,5.833598 -1.743106,8.634189 -5.72901,9.13388 z"
     id="path4"
     inkscape:connector-curvature="0"
     style="stroke-width:1.16207111" />
  <path
     d="M 10.344914,73.071111 A 1.2782783,1.2782783 0 0 0 9.0666362,71.792833 H 1.7223461 a 1.2782783,1.2782783 0 0 0 0,2.556556 h 7.3442901 a 1.2782783,1.2782783 0 0 0 1.2782778,-1.278278 z"
     id="path6"
     inkscape:connector-curvature="0"
     style="stroke-width:1.16207111" />
  <path
     d="m 10.565708,86.132791 -6.9027031,2.556557 a 1.2792552,1.2792552 0 1 0 0.8715532,2.405487 l 6.9027029,-2.510074 a 1.3011306,1.3011306 0 0 0 -0.871553,-2.45197 z"
     id="path8"
     inkscape:connector-curvature="0"
     style="stroke-width:1.16207111" />
  <path
     d="M 11.437261,56.093252 4.5461791,53.594798 a 1.2792552,1.2792552 0 0 0 -0.8715534,2.405487 l 6.9027023,2.510074 a 1.2827603,1.2827603 0 0 0 0.859933,-2.417107 z"
     id="path10"
     inkscape:connector-curvature="0"
     style="stroke-width:1.16207111" />
</svg>
