<?xml version="1.0" encoding="UTF-8" standalone="no"?>
<svg
   xmlns:dc="http://purl.org/dc/elements/1.1/"
   xmlns:cc="http://creativecommons.org/ns#"
   xmlns:rdf="http://www.w3.org/1999/02/22-rdf-syntax-ns#"
   xmlns:svg="http://www.w3.org/2000/svg"
   xmlns="http://www.w3.org/2000/svg"
   xmlns:sodipodi="http://sodipodi.sourceforge.net/DTD/sodipodi-0.dtd"
   xmlns:inkscape="http://www.inkscape.org/namespaces/inkscape"
   viewBox="0 0 64 80"
   x="0px"
   y="0px"
   version="1.1"
   id="svg24"
   sodipodi:docname="training.svg"
   inkscape:version="0.92.2 (5c3e80d, 2017-08-06)">
  <metadata
     id="metadata30">
    <rdf:RDF>
      <cc:Work
         rdf:about="">
        <dc:format>image/svg+xml</dc:format>
        <dc:type
           rdf:resource="http://purl.org/dc/dcmitype/StillImage" />
        <dc:title>people-business-work-presentation-training</dc:title>
      </cc:Work>
    </rdf:RDF>
  </metadata>
  <defs
     id="defs28" />
  <sodipodi:namedview
     pagecolor="#ffffff"
     bordercolor="#666666"
     borderopacity="1"
     objecttolerance="10"
     gridtolerance="10"
     guidetolerance="10"
     inkscape:pageopacity="0"
     inkscape:pageshadow="2"
     inkscape:window-width="2048"
     inkscape:window-height="1089"
     id="namedview26"
     showgrid="false"
     inkscape:zoom="2.95"
     inkscape:cx="32"
     inkscape:cy="40"
     inkscape:window-x="-8"
     inkscape:window-y="236"
     inkscape:window-maximized="1"
     inkscape:current-layer="svg24" />
  <title
     id="title2">people-business-work-presentation-training</title>
  <g
     data-name="Layer 6"
     id="g18"
     transform="translate(0,8.8135593)">
    <path
       d="m 34,49 h -4 a 7.008,7.008 0 0 0 -7,7 v 6 a 1,1 0 0 0 1,1 h 16 a 1,1 0 0 0 1,-1 v -6 a 7.008,7.008 0 0 0 -7,-7 z m -3,2 h 2 v 0.586 l -1,1 -1,-1 z m 8,10 h -2 v -4 h -2 v 4 h -6 v -4 h -2 v 4 h -2 v -5 a 5.009,5.009 0 0 1 4,-4.9 V 52 a 1,1 0 0 0 0.293,0.707 l 2,2 a 1,1 0 0 0 1.414,0 l 2,-2 A 1,1 0 0 0 35,52 v -0.9 a 5.009,5.009 0 0 1 4,4.9 z"
       id="path4"
       inkscape:connector-curvature="0" />
    <path
       d="M 12,49 H 8 a 7.008,7.008 0 0 0 -7,7 v 6 a 1,1 0 0 0 1,1 h 16 a 1,1 0 0 0 1,-1 v -6 a 7.008,7.008 0 0 0 -7,-7 z m -3,2 h 2 v 0.586 l -1,1 -1,-1 z m 8,10 h -2 v -4 h -2 v 4 H 7 V 57 H 5 v 4 H 3 V 56 A 5.009,5.009 0 0 1 7,51.1 V 52 a 1,1 0 0 0 0.293,0.707 l 2,2 a 1,1 0 0 0 1.414,0 l 2,-2 A 1,1 0 0 0 13,52 v -0.9 a 5.009,5.009 0 0 1 4,4.9 z"
       id="path6"
       inkscape:connector-curvature="0" />
    <path
       d="m 56,49 h -4 a 7.008,7.008 0 0 0 -7,7 v 6 a 1,1 0 0 0 1,1 h 16 a 1,1 0 0 0 1,-1 v -6 a 7.008,7.008 0 0 0 -7,-7 z m -3,2 h 2 v 0.586 l -1,1 -1,-1 z m 8,10 h -2 v -4 h -2 v 4 h -6 v -4 h -2 v 4 h -2 v -5 a 5.009,5.009 0 0 1 4,-4.9 V 52 a 1,1 0 0 0 0.293,0.707 l 2,2 a 1,1 0 0 0 1.414,0 l 2,-2 A 1,1 0 0 0 57,52 v -0.9 a 5.009,5.009 0 0 1 4,4.9 z"
       id="path8"
       inkscape:connector-curvature="0" />
    <path
       d="m 10,47 a 6,6 0 1 0 -6,-6 6.006,6.006 0 0 0 6,6 z m 0,-10 a 4,4 0 1 1 -4,4 4,4 0 0 1 4,-4 z"
       id="path10"
       inkscape:connector-curvature="0" />
    <path
       d="m 26,41 a 6,6 0 1 0 6,-6 6.006,6.006 0 0 0 -6,6 z m 10,0 a 4,4 0 1 1 -4,-4 4,4 0 0 1 4,4 z"
       id="path12"
       inkscape:connector-curvature="0" />
    <path
       d="M 8,29 H 48 V 41 A 6,6 0 1 0 58,36.54 V 30 h 1 a 3,3 0 0 0 3,-3 V 18 A 4,4 0 0 0 58,14 H 41 a 3,3 0 0 0 0,6 h 7 v 3 H 13 V 3 H 51 V 5.556 A 3.973,3.973 0 1 0 53,5 V 2 A 1,1 0 0 0 52,1 H 12 A 1,1 0 0 0 11,2 V 3 H 8 A 1,1 0 0 0 7,4 v 24 a 1,1 0 0 0 1,1 z M 55,9 a 2,2 0 1 1 -2,-2 2,2 0 0 1 2,2 z m -1,36 a 4,4 0 1 1 4,-4 4,4 0 0 1 -4,4 z m 5,-17 h -1 v -2 h 2 v 1 a 1,1 0 0 1 -1,1 z M 40,17 a 1,1 0 0 1 1,-1 h 1 v 2 h -1 a 1,1 0 0 1 -1,-1 z m 4,1 v -2 h 14 a 2,2 0 0 1 2,2 v 6 H 58 V 18 H 56 V 35.35 A 5.976,5.976 0 0 0 54,35 v -8 h -2 v 8.35 a 6.009,6.009 0 0 0 -2,1.19 V 19 A 1,1 0 0 0 49,18 Z M 9,5 h 2 v 19 a 1,1 0 0 0 1,1 h 36 v 2 H 9 Z"
       id="path14"
       inkscape:connector-curvature="0" />
    <path
       d="M 35,13 A 6.4,6.4 0 0 0 32.981,8.188 C 32.981,8.124 33,8.064 33,8 a 3,3 0 0 0 -6,0 c 0,0.064 0.015,0.124 0.019,0.188 A 6.19,6.19 0 0 0 25.076,12 h -4.26 a 3,3 0 1 0 0,2 h 4.26 a 6.19,6.19 0 0 0 1.943,3.812 C 27.019,17.876 27,17.936 27,18 a 3,3 0 0 0 6,0 c 0,-0.064 -0.015,-0.124 -0.019,-0.188 A 6.4,6.4 0 0 0 35,13 Z m -17,1 a 1,1 0 1 1 1,-1 1,1 0 0 1 -1,1 z M 30,7 a 1,1 0 1 1 -1,1 1,1 0 0 1 1,-1 z m 0,12 a 1,1 0 1 1 1,-1 1,1 0 0 1 -1,1 z m 2.09,-3.145 a 2.982,2.982 0 0 0 -4.18,0 A 4.715,4.715 0 0 1 27,13 a 4.715,4.715 0 0 1 0.91,-2.855 2.982,2.982 0 0 0 4.18,0 A 4.715,4.715 0 0 1 33,13 4.715,4.715 0 0 1 32.09,15.855 Z"
       id="path16"
       inkscape:connector-curvature="0" />
  </g>
</svg>
